<?xml version="1.0" standalone="yes"?>

<svg version="1.1" viewBox="0.0 0.0 1024.0 768.0" fill="none" stroke="none" stroke-linecap="square" stroke-miterlimit="10" xmlns="http://www.w3.org/2000/svg" xmlns:xlink="http://www.w3.org/1999/xlink"><clipPath id="p.0"><path d="m0 0l1024.0 0l0 768.0l-1024.0 0l0 -768.0z" clip-rule="nonzero"></path></clipPath><g clip-path="url(#p.0)"><path fill="#000000" fill-opacity="0.0" d="m0 0l1024.0 0l0 768.0l-1024.0 0z" fill-rule="nonzero"></path><path fill="#cfe2f3" d="m350.0 126.0l76.0 -43.0l76.0 43.0l-76.0 43.0z" fill-rule="nonzero"></path><path stroke="#000000" stroke-width="2.0" stroke-linejoin="round" stroke-linecap="butt" d="m350.0 126.0l76.0 -43.0l76.0 43.0l-76.0 43.0z" fill-rule="nonzero"></path><path fill="#000000" d="m397.98438 131.08l0 -7.78125l1.1875 0l0 1.09375q0.359375 -0.578125 0.96875 -0.921875q0.609375 -0.34375 1.390625 -0.34375q0.859375 0 1.40625 0.359375q0.5625 0.359375 0.78125 1.0q0.921875 -1.359375 2.40625 -1.359375q1.15625 0 1.78125 0.640625q0.625 0.640625 0.625 1.96875l0 5.34375l-1.3125 0l0 -4.90625q0 -0.78125 -0.125 -1.125q-0.125 -0.359375 -0.46875 -0.5625q-0.34375 -0.21875 -0.796875 -0.21875q-0.8125 0 -1.359375 0.546875q-0.546875 0.546875 -0.546875 1.75l0 4.515625l-1.3125 0l0 -5.046875q0 -0.890625 -0.328125 -1.328125q-0.3125 -0.4375 -1.046875 -0.4375q-0.5625 0 -1.03125 0.296875q-0.46875 0.296875 -0.6875 0.859375q-0.203125 0.5625 -0.203125 1.625l0 4.03125l-1.328125 0zm11.724396 -3.890625q0 -2.15625 1.203125 -3.203125q1.0 -0.859375 2.4375 -0.859375q1.609375 0 2.625 1.046875q1.015625 1.046875 1.015625 2.90625q0 1.5 -0.453125 2.359375q-0.4375 0.859375 -1.3125 1.34375q-0.859375 0.46875 -1.875 0.46875q-1.625 0 -2.640625 -1.046875q-1.0 -1.046875 -1.0 -3.015625zm1.359375 0q0 1.5 0.640625 2.25q0.65625 0.734375 1.640625 0.734375q0.984375 0 1.640625 -0.75q0.65625 -0.75 0.65625 -2.28125q0 -1.4375 -0.65625 -2.171875q-0.65625 -0.75 -1.640625 -0.75q-0.984375 0 -1.640625 0.734375q-0.640625 0.734375 -0.640625 2.234375zm7.2448425 3.890625l0 -10.734375l1.328125 0l0 10.734375l-1.328125 0zm3.5999146 0l0 -6.75l-1.15625 0l0 -1.03125l1.15625 0l0 -0.828125q0 -0.78125 0.140625 -1.15625q0.203125 -0.515625 0.671875 -0.828125q0.484375 -0.328125 1.34375 -0.328125q0.5625 0 1.234375 0.140625l-0.203125 1.140625q-0.40625 -0.078125 -0.765625 -0.078125q-0.609375 0 -0.859375 0.265625q-0.25 0.25 -0.25 0.953125l0 0.71875l1.515625 0l0 1.03125l-1.515625 0l0 6.75l-1.3125 0zm3.7750854 -9.21875l0 -1.515625l1.3125 0l0 1.515625l-1.3125 0zm0 9.21875l0 -7.78125l1.3125 0l0 7.78125l-1.3125 0zm3.2092896 0l0 -10.734375l1.328125 0l0 10.734375l-1.328125 0zm8.61554 -2.5l1.359375 0.15625q-0.3125 1.203125 -1.1875 1.859375q-0.875 0.65625 -2.234375 0.65625q-1.703125 0 -2.703125 -1.046875q-1.0 -1.046875 -1.0 -2.953125q0 -1.953125 1.015625 -3.03125q1.015625 -1.09375 2.625 -1.09375q1.5625 0 2.546875 1.0625q0.984375 1.0625 0.984375 2.984375q0 0.125 0 0.359375l-5.8125 0q0.078125 1.28125 0.71875 1.96875q0.65625 0.671875 1.640625 0.671875q0.71875 0 1.234375 -0.375q0.515625 -0.390625 0.8125 -1.21875zm-4.328125 -2.140625l4.34375 0q-0.09375 -0.984375 -0.5 -1.46875q-0.625 -0.765625 -1.625 -0.765625q-0.921875 0 -1.546875 0.609375q-0.609375 0.609375 -0.671875 1.625zm9.619843 2.0q0 -0.265625 0 -0.40625q0 -0.765625 0.21875 -1.328125q0.15625 -0.4375 0.515625 -0.859375q0.265625 -0.3125 0.953125 -0.921875q0.6875 -0.609375 0.890625 -0.96875q0.203125 -0.359375 0.203125 -0.78125q0 -0.765625 -0.609375 -1.34375q-0.59375 -0.59375 -1.46875 -0.59375q-0.84375 0 -1.40625 0.53125q-0.5625 0.53125 -0.734375 1.65625l-1.359375 -0.171875q0.1875 -1.5 1.09375 -2.296875q0.90625 -0.796875 2.390625 -0.796875q1.578125 0 2.515625 0.859375q0.9375 0.859375 0.9375 2.078125q0 0.703125 -0.34375 1.296875q-0.328125 0.59375 -1.28125 1.4375q-0.640625 0.5625 -0.84375 0.84375q-0.203125 0.265625 -0.296875 0.625q-0.09375 0.34375 -0.109375 1.140625l-1.265625 0zm-0.078125 2.640625l0 -1.5l1.5 0l0 1.5l-1.5 0z" fill-rule="nonzero"></path><path fill="#cfe2f3" d="m524.0 261.0l67.0 -50.0l67.0 50.0l-67.0 50.0z" fill-rule="nonzero"></path><path stroke="#000000" stroke-width="2.0" stroke-linejoin="round" stroke-linecap="butt" d="m524.0 261.0l67.0 -50.0l67.0 50.0l-67.0 50.0z" fill-rule="nonzero"></path><path fill="#000000" d="m578.5807 254.58l1.359375 0.15625q-0.3125 1.203125 -1.1875 1.8593597q-0.875 0.65625 -2.234375 0.65625q-1.703125 0 -2.703125 -1.046875q-1.0 -1.0468597 -1.0 -2.9531097q0 -1.953125 1.015625 -3.03125q1.015625 -1.09375 2.625 -1.09375q1.5625 0 2.546875 1.0625q0.984375 1.0625 0.984375 2.984375q0 0.125 0 0.359375l-5.8125 0q0.078125 1.28125 0.71875 1.96875q0.65625 0.67185974 1.640625 0.67185974q0.71875 0 1.234375 -0.37498474q0.515625 -0.390625 0.8125 -1.21875zm-4.328125 -2.140625l4.34375 0q-0.09375 -0.984375 -0.5 -1.46875q-0.625 -0.765625 -1.625 -0.765625q-0.921875 0 -1.546875 0.609375q-0.609375 0.609375 -0.671875 1.625zm6.276123 4.6406097l2.84375 -4.0468597l-2.625 -3.734375l1.640625 0l1.203125 1.828125q0.328125 0.515625 0.53125 0.875q0.328125 -0.484375 0.59375 -0.859375l1.3125 -1.84375l1.578125 0l-2.6875 3.671875l2.890625 4.1093597l-1.625 0l-1.59375 -2.4218597l-0.421875 -0.640625l-2.046875 3.0624847l-1.59375 0zm8.21875 -9.218735l0 -1.515625l1.3125 0l0 1.515625l-1.3125 0zm0 9.218735l0 -7.7812347l1.3125 0l0 7.7812347l-1.3125 0zm2.7249146 -2.3281097l1.296875 -0.203125q0.109375 0.78125 0.609375 1.203125q0.5 0.42185974 1.40625 0.42185974q0.90625 0 1.34375 -0.35935974q0.4375 -0.375 0.4375 -0.875q0 -0.453125 -0.390625 -0.703125q-0.265625 -0.1875 -1.34375 -0.453125q-1.453125 -0.359375 -2.015625 -0.625q-0.546875 -0.28125 -0.84375 -0.75q-0.28125 -0.46875 -0.28125 -1.046875q0 -0.515625 0.234375 -0.953125q0.234375 -0.453125 0.640625 -0.734375q0.3125 -0.234375 0.84375 -0.390625q0.53125 -0.15625 1.140625 -0.15625q0.90625 0 1.59375 0.265625q0.703125 0.265625 1.03125 0.71875q0.328125 0.4375 0.453125 1.203125l-1.28125 0.171875q-0.09375 -0.609375 -0.515625 -0.9375q-0.421875 -0.34375 -1.1875 -0.34375q-0.90625 0 -1.296875 0.3125q-0.390625 0.296875 -0.390625 0.703125q0 0.25 0.15625 0.453125q0.171875 0.21875 0.515625 0.359375q0.1875 0.0625 1.15625 0.328125q1.40625 0.375 1.953125 0.609375q0.5625 0.234375 0.875 0.703125q0.3125 0.453125 0.3125 1.125q0 0.65625 -0.390625 1.2343597q-0.375 0.578125 -1.109375 0.90625q-0.71875 0.3125 -1.640625 0.3125q-1.515625 0 -2.3125 -0.625q-0.78125 -0.625 -1.0 -1.8749847zm10.734375 1.15625l0.1875 1.1562347q-0.5625 0.125 -1.0 0.125q-0.71875 0 -1.125 -0.234375q-0.390625 -0.234375 -0.546875 -0.59375q-0.15625 -0.37498474 -0.15625 -1.5624847l0 -4.46875l-0.96875 0l0 -1.03125l0.96875 0l0 -1.921875l1.3125 -0.796875l0 2.71875l1.328125 0l0 1.03125l-1.328125 0l0 4.546875q0 0.5625 0.0625 0.734375q0.078125 0.15625 0.234375 0.25q0.15625 0.09375 0.4375 0.09375q0.234375 0 0.59375 -0.046875zm0.66571045 -1.15625l1.296875 -0.203125q0.109375 0.78125 0.609375 1.203125q0.5 0.42185974 1.40625 0.42185974q0.90625 0 1.34375 -0.35935974q0.4375 -0.375 0.4375 -0.875q0 -0.453125 -0.390625 -0.703125q-0.265625 -0.1875 -1.34375 -0.453125q-1.453125 -0.359375 -2.015625 -0.625q-0.546875 -0.28125 -0.84375 -0.75q-0.28125 -0.46875 -0.28125 -1.046875q0 -0.515625 0.234375 -0.953125q0.234375 -0.453125 0.640625 -0.734375q0.3125 -0.234375 0.84375 -0.390625q0.53125 -0.15625 1.140625 -0.15625q0.90625 0 1.59375 0.265625q0.703125 0.265625 1.03125 0.71875q0.328125 0.4375 0.453125 1.203125l-1.28125 0.171875q-0.09375 -0.609375 -0.515625 -0.9375q-0.421875 -0.34375 -1.1875 -0.34375q-0.90625 0 -1.296875 0.3125q-0.390625 0.296875 -0.390625 0.703125q0 0.25 0.15625 0.453125q0.171875 0.21875 0.515625 0.359375q0.1875 0.0625 1.15625 0.328125q1.40625 0.375 1.953125 0.609375q0.5625 0.234375 0.875 0.703125q0.3125 0.453125 0.3125 1.125q0 0.65625 -0.390625 1.2343597q-0.375 0.578125 -1.109375 0.90625q-0.71875 0.3125 -1.640625 0.3125q-1.515625 0 -2.3125 -0.625q-0.78125 -0.625 -1.0 -1.8749847z" fill-rule="nonzero"></path><path fill="#000000" d="m570.0049 265.86127l0 -1.515625l1.3125 0l0 1.515625l-1.3125 0zm0 9.21875l0 -7.78125l1.3125 0l0 7.78125l-1.3125 0zm3.2405396 0l0 -7.78125l1.1875 0l0 1.109375q0.859375 -1.28125 2.484375 -1.28125q0.703125 0 1.28125 0.25q0.59375 0.25 0.890625 0.671875q0.296875 0.40625 0.40625 0.96875q0.078125 0.359375 0.078125 1.28125l0 4.78125l-1.328125 0l0 -4.734375q0 -0.796875 -0.15625 -1.1875q-0.140625 -0.40625 -0.53125 -0.640625q-0.390625 -0.25 -0.921875 -0.25q-0.84375 0 -1.453125 0.53125q-0.609375 0.53125 -0.609375 2.03125l0 4.25l-1.328125 0zm12.3949585 0l0 -10.734375l3.703125 0q1.25 0 1.90625 0.15625q0.921875 0.203125 1.578125 0.765625q0.84375 0.71875 1.265625 1.84375q0.421875 1.109375 0.421875 2.546875q0 1.21875 -0.28125 2.171875q-0.28125 0.9375 -0.734375 1.5625q-0.453125 0.609375 -0.984375 0.96875q-0.53125 0.359375 -1.28125 0.546875q-0.75 0.171875 -1.71875 0.171875l-3.875 0zm1.421875 -1.265625l2.296875 0q1.0625 0 1.65625 -0.1875q0.609375 -0.203125 0.96875 -0.5625q0.5 -0.515625 0.78125 -1.359375q0.28125 -0.859375 0.28125 -2.078125q0 -1.6875 -0.546875 -2.578125q-0.546875 -0.90625 -1.34375 -1.21875q-0.578125 -0.21875 -1.84375 -0.21875l-2.25 0l0 8.203125zm9.099915 1.265625l0 -10.734375l4.03125 0q1.234375 0 1.96875 0.328125q0.75 0.328125 1.171875 1.0q0.421875 0.671875 0.421875 1.421875q0 0.6875 -0.375 1.296875q-0.375 0.59375 -1.125 0.96875q0.96875 0.296875 1.484375 0.984375q0.53125 0.6875 0.53125 1.625q0 0.75 -0.328125 1.40625q-0.3125 0.640625 -0.78125 1.0q-0.46875 0.34375 -1.171875 0.53125q-0.703125 0.171875 -1.734375 0.171875l-4.09375 0zm1.421875 -6.21875l2.328125 0q0.9375 0 1.359375 -0.125q0.53125 -0.171875 0.796875 -0.546875q0.28125 -0.375 0.28125 -0.9375q0 -0.53125 -0.25 -0.9375q-0.25 -0.40625 -0.734375 -0.546875q-0.46875 -0.15625 -1.625 -0.15625l-2.15625 0l0 3.25zm0 4.953125l2.671875 0q0.6875 0 0.96875 -0.046875q0.5 -0.09375 0.828125 -0.296875q0.328125 -0.203125 0.53125 -0.59375q0.21875 -0.390625 0.21875 -0.90625q0 -0.609375 -0.3125 -1.046875q-0.296875 -0.4375 -0.84375 -0.609375q-0.546875 -0.1875 -1.578125 -0.1875l-2.484375 0l0 3.6875zm10.713074 -1.375q0 -0.265625 0 -0.40625q0 -0.765625 0.21875 -1.328125q0.15625 -0.4375 0.515625 -0.859375q0.265625 -0.3125 0.953125 -0.921875q0.6875 -0.609375 0.890625 -0.96875q0.203125 -0.359375 0.203125 -0.78125q0 -0.765625 -0.609375 -1.34375q-0.59375 -0.59375 -1.46875 -0.59375q-0.84375 0 -1.40625 0.53125q-0.5625 0.53125 -0.734375 1.65625l-1.359375 -0.171875q0.1875 -1.5 1.09375 -2.296875q0.90625 -0.796875 2.390625 -0.796875q1.578125 0 2.515625 0.859375q0.9375 0.859375 0.9375 2.078125q0 0.703125 -0.34375 1.296875q-0.328125 0.59375 -1.28125 1.4375q-0.640625 0.5625 -0.84375 0.84375q-0.203125 0.265625 -0.296875 0.625q-0.09375 0.34375 -0.109375 1.140625l-1.265625 0zm-0.078125 2.640625l0 -1.5l1.5 0l0 1.5l-1.5 0z" fill-rule="nonzero"></path><path fill="#000000" fill-opacity="0.0" d="m506.0 127.0l86.0 0l0 84.0" fill-rule="nonzero"></path><path stroke="#000000" stroke-width="2.0" stroke-linejoin="round" stroke-linecap="butt" d="m506.0 127.0l86.0 0l0 72.0" fill-rule="evenodd"></path><path fill="#000000" stroke="#000000" stroke-width="2.0" stroke-linecap="butt" d="m588.69653 199.0l3.3034668 9.076202l3.3034668 -9.076202z" fill-rule="evenodd"></path><path fill="#000000" fill-opacity="0.0" d="m506.0 79.0l34.015747 0l0 48.0l-34.015747 0z" fill-rule="nonzero"></path><path fill="#000000" d="m520.2969 105.92l0 -5.765625l-5.234375 -7.828125l2.1875 0l2.671875 4.09375q0.75 1.15625 1.390625 2.296875q0.609375 -1.0625 1.484375 -2.40625l2.625 -3.984375l2.109375 0l-5.4375 7.828125l0 5.765625l-1.796875 0z" fill-rule="nonzero"></path><path fill="#000000" fill-opacity="0.0" d="m352.0 127.0l-64.0 0l0 130.0" fill-rule="nonzero"></path><path stroke="#000000" stroke-width="2.0" stroke-linejoin="round" stroke-linecap="butt" d="m352.0 127.0l-64.0 0l0 118.0" fill-rule="evenodd"></path><path fill="#000000" stroke="#000000" stroke-width="2.0" stroke-linecap="butt" d="m284.69653 245.0l3.3034668 9.076202l3.3034668 -9.076202z" fill-rule="evenodd"></path><path fill="#000000" fill-opacity="0.0" d="m526.0 261.0l-236.0 2.0" fill-rule="nonzero"></path><path stroke="#000000" stroke-width="2.0" stroke-linejoin="round" stroke-linecap="butt" d="m526.0 261.0l-224.00043 1.8983154" fill-rule="evenodd"></path><path fill="#000000" stroke="#000000" stroke-width="2.0" stroke-linecap="butt" d="m301.9716 259.59497l-9.047882 3.380249l9.103851 3.2264404z" fill-rule="evenodd"></path><path fill="#cfe2f3" d="m280.0 265.0l0 0c0 -4.418274 3.581726 -8.0 8.0 -8.0l0 0c2.1217346 0 4.156555 0.842865 5.6568604 2.3431396c1.5002747 1.5003052 2.3431396 3.5351257 2.3431396 5.6568604l0 0c0 4.418274 -3.581726 8.0 -8.0 8.0l0 0c-4.418274 0 -8.0 -3.581726 -8.0 -8.0z" fill-rule="nonzero"></path><path stroke="#000000" stroke-width="2.0" stroke-linejoin="round" stroke-linecap="butt" d="m280.0 265.0l0 0c0 -4.418274 3.581726 -8.0 8.0 -8.0l0 0c2.1217346 0 4.156555 0.842865 5.6568604 2.3431396c1.5002747 1.5003052 2.3431396 3.5351257 2.3431396 5.6568604l0 0c0 4.418274 -3.581726 8.0 -8.0 8.0l0 0c-4.418274 0 -8.0 -3.581726 -8.0 -8.0z" fill-rule="nonzero"></path><path fill="#000000" fill-opacity="0.0" d="m288.0 273.0l0 102.01575" fill-rule="nonzero"></path><path stroke="#000000" stroke-width="2.0" stroke-linejoin="round" stroke-linecap="butt" d="m288.0 273.0l0 90.01575" fill-rule="evenodd"></path><path fill="#000000" stroke="#000000" stroke-width="2.0" stroke-linecap="butt" d="m284.69653 363.01575l3.3034668 9.076202l3.3034668 -9.076202z" fill-rule="evenodd"></path><path fill="#cfe2f3" d="m193.0 425.01575l95.0 -50.0l95.0 50.0l-95.0 50.0z" fill-rule="nonzero"></path><path stroke="#000000" stroke-width="2.0" stroke-linejoin="round" stroke-linecap="butt" d="m193.0 425.01575l95.0 -50.0l95.0 50.0l-95.0 50.0z" fill-rule="nonzero"></path><path fill="#000000" d="m250.48438 421.09573l0 -7.78125l1.1875 0l0 1.09375q0.359375 -0.578125 0.96875 -0.921875q0.609375 -0.34375 1.390625 -0.34375q0.859375 0 1.40625 0.359375q0.5625 0.359375 0.78125 1.0q0.921875 -1.359375 2.40625 -1.359375q1.15625 0 1.78125 0.640625q0.625 0.640625 0.625 1.96875l0 5.34375l-1.3125 0l0 -4.90625q0 -0.78125 -0.125 -1.125q-0.125 -0.359375 -0.46875 -0.5625q-0.34375 -0.21875 -0.796875 -0.21875q-0.8125 0 -1.359375 0.546875q-0.546875 0.546875 -0.546875 1.75l0 4.515625l-1.3125 0l0 -5.046875q0 -0.890625 -0.328125 -1.328125q-0.3125 -0.4375 -1.046875 -0.4375q-0.5625 0 -1.03125 0.296875q-0.46875 0.296875 -0.6875 0.859375q-0.203125 0.5625 -0.203125 1.625l0 4.03125l-1.328125 0zm11.724396 -3.890625q0 -2.15625 1.203125 -3.203125q1.0 -0.859375 2.4375 -0.859375q1.609375 0 2.625 1.046875q1.015625 1.046875 1.015625 2.90625q0 1.5 -0.453125 2.359375q-0.4375 0.859375 -1.3125 1.34375q-0.859375 0.46875 -1.875 0.46875q-1.625 0 -2.640625 -1.046875q-1.0 -1.046875 -1.0 -3.015625zm1.359375 0q0 1.5 0.640625 2.25q0.65625 0.734375 1.640625 0.734375q0.984375 0 1.640625 -0.75q0.65625 -0.75 0.65625 -2.28125q0 -1.4375 -0.65625 -2.171875q-0.65625 -0.75 -1.640625 -0.75q-0.984375 0 -1.640625 0.734375q-0.640625 0.734375 -0.640625 2.234375zm7.2448425 3.890625l0 -10.734375l1.328125 0l0 10.734375l-1.328125 0zm3.2717896 0l0 -7.78125l1.1875 0l0 1.1875q0.453125 -0.828125 0.84375 -1.09375q0.390625 -0.265625 0.84375 -0.265625q0.671875 0 1.359375 0.421875l-0.453125 1.21875q-0.484375 -0.28125 -0.96875 -0.28125q-0.4375 0 -0.78125 0.265625q-0.34375 0.25 -0.484375 0.71875q-0.21875 0.703125 -0.21875 1.53125l0 4.078125l-1.328125 0zm10.224396 -2.5l1.359375 0.15625q-0.3125 1.203125 -1.1875 1.859375q-0.875 0.65625 -2.234375 0.65625q-1.703125 0 -2.703125 -1.046875q-1.0 -1.046875 -1.0 -2.953125q0 -1.953125 1.015625 -3.03125q1.015625 -1.09375 2.625 -1.09375q1.5625 0 2.546875 1.0625q0.984375 1.0625 0.984375 2.984375q0 0.125 0 0.359375l-5.8125 0q0.078125 1.28125 0.71875 1.96875q0.65625 0.671875 1.640625 0.671875q0.71875 0 1.234375 -0.375q0.515625 -0.390625 0.8125 -1.21875zm-4.328125 -2.140625l4.34375 0q-0.09375 -0.984375 -0.5 -1.46875q-0.625 -0.765625 -1.625 -0.765625q-0.921875 0 -1.546875 0.609375q-0.609375 0.609375 -0.671875 1.625zm6.9167175 5.28125l1.28125 0.1875q0.078125 0.59375 0.4375 0.875q0.5 0.359375 1.34375 0.359375q0.921875 0 1.421875 -0.375q0.5 -0.359375 0.671875 -1.015625q0.09375 -0.40625 0.09375 -1.6875q-0.859375 1.015625 -2.15625 1.015625q-1.609375 0 -2.484375 -1.15625q-0.875 -1.15625 -0.875 -2.78125q0 -1.109375 0.40625 -2.046875q0.40625 -0.9375 1.15625 -1.453125q0.765625 -0.515625 1.8125 -0.515625q1.375 0 2.265625 1.109375l0 -0.9375l1.21875 0l0 6.71875q0 1.828125 -0.375 2.578125q-0.375 0.765625 -1.171875 1.203125q-0.796875 0.4375 -1.96875 0.4375q-1.390625 0 -2.25 -0.625q-0.859375 -0.625 -0.828125 -1.890625zm1.09375 -4.671875q0 1.53125 0.59375 2.234375q0.609375 0.703125 1.53125 0.703125q0.90625 0 1.515625 -0.6875q0.625 -0.703125 0.625 -2.203125q0 -1.421875 -0.640625 -2.140625q-0.625 -0.734375 -1.515625 -0.734375q-0.890625 0 -1.5 0.71875q-0.609375 0.703125 -0.609375 2.109375zm7.291748 4.03125l0 -7.78125l1.1875 0l0 1.109375q0.859375 -1.28125 2.484375 -1.28125q0.703125 0 1.28125 0.25q0.59375 0.25 0.890625 0.671875q0.296875 0.40625 0.40625 0.96875q0.078125 0.359375 0.078125 1.28125l0 4.78125l-1.328125 0l0 -4.734375q0 -0.796875 -0.15625 -1.1875q-0.140625 -0.40625 -0.53125 -0.640625q-0.390625 -0.25 -0.921875 -0.25q-0.84375 0 -1.453125 0.53125q-0.609375 0.53125 -0.609375 2.03125l0 4.25l-1.328125 0zm7.666748 -3.890625q0 -2.15625 1.203125 -3.203125q1.0 -0.859375 2.4375 -0.859375q1.609375 0 2.625 1.046875q1.015625 1.046875 1.015625 2.90625q0 1.5 -0.453125 2.359375q-0.4375 0.859375 -1.3125 1.34375q-0.859375 0.46875 -1.875 0.46875q-1.625 0 -2.640625 -1.046875q-1.0 -1.046875 -1.0 -3.015625zm1.359375 0q0 1.5 0.640625 2.25q0.65625 0.734375 1.640625 0.734375q0.984375 0 1.640625 -0.75q0.65625 -0.75 0.65625 -2.28125q0 -1.4375 -0.65625 -2.171875q-0.65625 -0.75 -1.640625 -0.75q-0.984375 0 -1.640625 0.734375q-0.640625 0.734375 -0.640625 2.234375zm7.6198425 3.890625l0 -1.5l1.5 0l0 1.5q0 0.828125 -0.296875 1.328125q-0.28125 0.515625 -0.921875 0.796875l-0.359375 -0.5625q0.40625 -0.1875 0.609375 -0.546875q0.203125 -0.34375 0.21875 -1.015625l-0.75 0z" fill-rule="nonzero"></path><path fill="#000000" d="m250.46875 439.09576l0 -7.78125l1.1875 0l0 1.1875q0.453125 -0.828125 0.84375 -1.09375q0.390625 -0.265625 0.84375 -0.265625q0.671875 0 1.359375 0.421875l-0.453125 1.21875q-0.484375 -0.28125 -0.96875 -0.28125q-0.4375 0 -0.78125 0.265625q-0.34375 0.25 -0.484375 0.71875q-0.21875 0.703125 -0.21875 1.53125l0 4.078125l-1.328125 0zm10.224396 -2.5l1.359375 0.15625q-0.3125 1.203125 -1.1875 1.859375q-0.875 0.65625 -2.234375 0.65625q-1.703125 0 -2.703125 -1.046875q-1.0 -1.046875 -1.0 -2.953125q0 -1.953125 1.015625 -3.03125q1.015625 -1.09375 2.625 -1.09375q1.5625 0 2.546875 1.0625q0.984375 1.0625 0.984375 2.984375q0 0.125 0 0.359375l-5.8125 0q0.078125 1.28125 0.71875 1.96875q0.65625 0.671875 1.640625 0.671875q0.71875 0 1.234375 -0.375q0.515625 -0.390625 0.8125 -1.21875zm-4.328125 -2.140625l4.34375 0q-0.09375 -0.984375 -0.5 -1.46875q-0.625 -0.765625 -1.625 -0.765625q-0.921875 0 -1.546875 0.609375q-0.609375 0.609375 -0.671875 1.625zm12.229218 1.796875l1.296875 0.15625q-0.203125 1.34375 -1.09375 2.109375q-0.875 0.75 -2.140625 0.75q-1.59375 0 -2.5625 -1.03125q-0.96875 -1.046875 -0.96875 -3.0q0 -1.265625 0.40625 -2.203125q0.421875 -0.953125 1.265625 -1.421875q0.859375 -0.46875 1.859375 -0.46875q1.265625 0 2.078125 0.640625q0.8125 0.640625 1.03125 1.8125l-1.28125 0.203125q-0.1875 -0.78125 -0.65625 -1.171875q-0.453125 -0.40625 -1.109375 -0.40625q-1.0 0 -1.625 0.71875q-0.625 0.71875 -0.625 2.265625q0 1.5625 0.59375 2.28125q0.609375 0.703125 1.578125 0.703125q0.78125 0 1.296875 -0.46875q0.515625 -0.484375 0.65625 -1.46875zm1.765625 -1.046875q0 -2.15625 1.203125 -3.203125q1.0 -0.859375 2.4375 -0.859375q1.609375 0 2.625 1.046875q1.015625 1.046875 1.015625 2.90625q0 1.5 -0.453125 2.359375q-0.4375 0.859375 -1.3125 1.34375q-0.859375 0.46875 -1.875 0.46875q-1.625 0 -2.640625 -1.046875q-1.0 -1.046875 -1.0 -3.015625zm1.359375 0q0 1.5 0.640625 2.25q0.65625 0.734375 1.640625 0.734375q0.984375 0 1.640625 -0.75q0.65625 -0.75 0.65625 -2.28125q0 -1.4375 -0.65625 -2.171875q-0.65625 -0.75 -1.640625 -0.75q-0.984375 0 -1.640625 0.734375q-0.640625 0.734375 -0.640625 2.234375zm7.260498 3.890625l0 -7.78125l1.1875 0l0 1.1875q0.453125 -0.828125 0.84375 -1.09375q0.390625 -0.265625 0.84375 -0.265625q0.671875 0 1.359375 0.421875l-0.453125 1.21875q-0.484375 -0.28125 -0.96875 -0.28125q-0.4375 0 -0.78125 0.265625q-0.34375 0.25 -0.484375 0.71875q-0.21875 0.703125 -0.21875 1.53125l0 4.078125l-1.328125 0zm9.943146 0l0 -0.984375q-0.734375 1.15625 -2.171875 1.15625q-0.921875 0 -1.703125 -0.5q-0.78125 -0.515625 -1.21875 -1.4375q-0.421875 -0.921875 -0.421875 -2.109375q0 -1.171875 0.390625 -2.109375q0.390625 -0.953125 1.15625 -1.453125q0.78125 -0.515625 1.734375 -0.515625q0.703125 0 1.25 0.296875q0.5625 0.296875 0.90625 0.765625l0 -3.84375l1.3125 0l0 10.734375l-1.234375 0zm-4.15625 -3.875q0 1.484375 0.625 2.234375q0.625 0.734375 1.484375 0.734375q0.859375 0 1.46875 -0.703125q0.609375 -0.71875 0.609375 -2.15625q0 -1.609375 -0.625 -2.34375q-0.609375 -0.75 -1.515625 -0.75q-0.875 0 -1.46875 0.71875q-0.578125 0.71875 -0.578125 2.265625zm6.0417175 6.859375l0 -0.953125l8.75 0l0 0.953125l-8.75 0zm9.385498 -12.203125l0 -1.515625l1.3125 0l0 1.515625l-1.3125 0zm0 9.21875l0 -7.78125l1.3125 0l0 7.78125l-1.3125 0zm8.287415 0l0 -0.984375q-0.734375 1.15625 -2.171875 1.15625q-0.921875 0 -1.703125 -0.5q-0.78125 -0.515625 -1.21875 -1.4375q-0.421875 -0.921875 -0.421875 -2.109375q0 -1.171875 0.390625 -2.109375q0.390625 -0.953125 1.15625 -1.453125q0.78125 -0.515625 1.734375 -0.515625q0.703125 0 1.25 0.296875q0.5625 0.296875 0.90625 0.765625l0 -3.84375l1.3125 0l0 10.734375l-1.234375 0zm-4.15625 -3.875q0 1.484375 0.625 2.234375q0.625 0.734375 1.484375 0.734375q0.859375 0 1.46875 -0.703125q0.609375 -0.71875 0.609375 -2.15625q0 -1.609375 -0.625 -2.34375q-0.609375 -0.75 -1.515625 -0.75q-0.875 0 -1.46875 0.71875q-0.578125 0.71875 -0.578125 2.265625zm9.729218 1.234375q0 -0.265625 0 -0.40625q0 -0.765625 0.21875 -1.328125q0.15625 -0.4375 0.515625 -0.859375q0.265625 -0.3125 0.953125 -0.921875q0.6875 -0.609375 0.890625 -0.96875q0.203125 -0.359375 0.203125 -0.78125q0 -0.765625 -0.609375 -1.34375q-0.59375 -0.59375 -1.46875 -0.59375q-0.84375 0 -1.40625 0.53125q-0.5625 0.53125 -0.734375 1.65625l-1.359375 -0.171875q0.1875 -1.5 1.09375 -2.296875q0.90625 -0.796875 2.390625 -0.796875q1.578125 0 2.515625 0.859375q0.9375 0.859375 0.9375 2.078125q0 0.703125 -0.34375 1.296875q-0.328125 0.59375 -1.28125 1.4375q-0.640625 0.5625 -0.84375 0.84375q-0.203125 0.265625 -0.296875 0.625q-0.09375 0.34375 -0.109375 1.140625l-1.265625 0zm-0.078125 2.640625l0 -1.5l1.5 0l0 1.5l-1.5 0z" fill-rule="nonzero"></path><path fill="#cfe2f3" d="m95.83501 497.0l58.326996 0l0 0c7.640991 0 13.835236 10.745575 13.835236 24.000916c0 13.255371 -6.1942444 24.000977 -13.835236 24.000977l-58.326996 0l0 0c-7.640991 0 -13.835243 -10.745605 -13.835243 -24.000977c0 -13.255341 6.194252 -24.000916 13.835243 -24.000916z" fill-rule="nonzero"></path><path stroke="#000000" stroke-width="2.0" stroke-linejoin="round" stroke-linecap="butt" d="m95.83501 497.0l58.326996 0l0 0c7.640991 0 13.835236 10.745575 13.835236 24.000916c0 13.255371 -6.1942444 24.000977 -13.835236 24.000977l-58.326996 0l0 0c-7.640991 0 -13.835243 -10.745605 -13.835243 -24.000977c0 -13.255341 6.194252 -24.000916 13.835243 -24.000916z" fill-rule="nonzero"></path><path fill="#000000" d="m99.2357 526.08093l0 -10.734375l2.140625 0l2.546875 7.59375q0.34375 1.0625 0.515625 1.59375q0.171875 -0.578125 0.5625 -1.71875l2.578125 -7.46875l1.90625 0l0 10.734375l-1.375 0l0 -8.984375l-3.109375 8.984375l-1.28125 0l-3.109375 -9.140625l0 9.140625l-1.375 0zm12.286896 0l0 -10.734375l7.765625 0l0 1.265625l-6.34375 0l0 3.28125l5.9375 0l0 1.265625l-5.9375 0l0 3.65625l6.59375 0l0 1.265625l-8.015625 0zm9.759979 0l0 -10.734375l4.765625 0q1.4375 0 2.1875 0.296875q0.75 0.28125 1.1875 1.015625q0.453125 0.734375 0.453125 1.609375q0 1.140625 -0.75 1.9375q-0.734375 0.78125 -2.28125 0.984375q0.5625 0.28125 0.859375 0.546875q0.625 0.5625 1.1875 1.421875l1.859375 2.921875l-1.78125 0l-1.421875 -2.234375q-0.625 -0.96875 -1.03125 -1.46875q-0.40625 -0.515625 -0.71875 -0.71875q-0.3125 -0.21875 -0.640625 -0.296875q-0.25 -0.046875 -0.796875 -0.046875l-1.65625 0l0 4.765625l-1.421875 0zm1.421875 -6.0l3.0625 0q0.96875 0 1.515625 -0.203125q0.5625 -0.203125 0.84375 -0.640625q0.28125 -0.4375 0.28125 -0.96875q0 -0.75 -0.5625 -1.234375q-0.546875 -0.5 -1.734375 -0.5l-3.40625 0l0 3.546875zm14.178024 1.78125l0 -1.25l4.546875 -0.015625l0 3.984375q-1.046875 0.84375 -2.171875 1.265625q-1.109375 0.421875 -2.28125 0.421875q-1.578125 0 -2.875 -0.671875q-1.296875 -0.6875 -1.953125 -1.96875q-0.65625 -1.28125 -0.65625 -2.859375q0 -1.578125 0.65625 -2.9375q0.65625 -1.359375 1.890625 -2.015625q1.234375 -0.65625 2.828125 -0.65625q1.171875 0 2.109375 0.375q0.9375 0.375 1.46875 1.0625q0.546875 0.671875 0.8125 1.75l-1.28125 0.34375q-0.234375 -0.8125 -0.59375 -1.28125q-0.359375 -0.46875 -1.03125 -0.75q-0.65625 -0.28125 -1.46875 -0.28125q-0.984375 0 -1.703125 0.296875q-0.703125 0.296875 -1.140625 0.78125q-0.421875 0.484375 -0.671875 1.0625q-0.40625 1.0 -0.40625 2.15625q0 1.4375 0.484375 2.40625q0.5 0.96875 1.4375 1.4375q0.953125 0.46875 2.015625 0.46875q0.921875 0 1.796875 -0.359375q0.890625 -0.359375 1.34375 -0.765625l0 -2.0l-3.15625 0zm6.4001007 4.21875l0 -10.734375l7.765625 0l0 1.265625l-6.34375 0l0 3.28125l5.9375 0l0 1.265625l-5.9375 0l0 3.65625l6.59375 0l0 1.265625l-8.015625 0z" fill-rule="nonzero"></path><path fill="#000000" fill-opacity="0.0" d="m193.0 427.0l-66.0 0l0 69.997986" fill-rule="nonzero"></path><path stroke="#000000" stroke-width="2.0" stroke-linejoin="round" stroke-linecap="butt" d="m193.0 427.0l-66.0 0l0 57.997986" fill-rule="evenodd"></path><path fill="#000000" stroke="#000000" stroke-width="2.0" stroke-linecap="butt" d="m123.69653 484.998l3.3034668 9.076202l3.3034668 -9.076202z" fill-rule="evenodd"></path><path fill="#cfe2f3" d="m409.78235 497.0l64.433075 0l0 0c8.440918 0 15.28363 10.745575 15.28363 24.000916c0 13.255371 -6.8427124 24.000977 -15.28363 24.000977l-64.433075 0l0 0c-8.440918 0 -15.28363 -10.745605 -15.28363 -24.000977c0 -13.255341 6.8427124 -24.000916 15.28363 -24.000916z" fill-rule="nonzero"></path><path stroke="#000000" stroke-width="2.0" stroke-linejoin="round" stroke-linecap="butt" d="m409.78235 497.0l64.433075 0l0 0c8.440918 0 15.28363 10.745575 15.28363 24.000916c0 13.255371 -6.8427124 24.000977 -15.28363 24.000977l-64.433075 0l0 0c-8.440918 0 -15.28363 -10.745605 -15.28363 -24.000977c0 -13.255341 6.8427124 -24.000916 15.28363 -24.000916z" fill-rule="nonzero"></path><path fill="#000000" d="m420.47803 515.34656l1.421875 0l0 6.203125q0 1.609375 -0.375 2.5625q-0.359375 0.953125 -1.3125 1.5625q-0.953125 0.59375 -2.515625 0.59375q-1.5 0 -2.46875 -0.515625q-0.953125 -0.53125 -1.375 -1.515625q-0.40625 -0.984375 -0.40625 -2.6875l0 -6.203125l1.421875 0l0 6.1875q0 1.40625 0.265625 2.078125q0.265625 0.65625 0.890625 1.015625q0.640625 0.359375 1.546875 0.359375q1.578125 0 2.234375 -0.703125q0.671875 -0.71875 0.671875 -2.75l0 -6.1875zm3.537384 10.734375l0 -10.734375l4.046875 0q1.078125 0 1.640625 0.09375q0.78125 0.140625 1.3125 0.515625q0.546875 0.359375 0.875 1.03125q0.328125 0.65625 0.328125 1.46875q0 1.359375 -0.875 2.3125q-0.875 0.953125 -3.15625 0.953125l-2.75 0l0 4.359375l-1.421875 0zm1.421875 -5.625l2.78125 0q1.375 0 1.953125 -0.515625q0.578125 -0.515625 0.578125 -1.453125q0 -0.671875 -0.34375 -1.140625q-0.34375 -0.484375 -0.890625 -0.640625q-0.359375 -0.09375 -1.328125 -0.09375l-2.75 0l0 3.84375zm8.353729 5.625l0 -10.734375l3.703125 0q1.25 0 1.90625 0.15625q0.921875 0.203125 1.578125 0.765625q0.84375 0.71875 1.265625 1.84375q0.421875 1.109375 0.421875 2.546875q0 1.21875 -0.28125 2.171875q-0.28125 0.9375 -0.734375 1.5625q-0.453125 0.609375 -0.984375 0.96875q-0.53125 0.359375 -1.28125 0.546875q-0.75 0.171875 -1.71875 0.171875l-3.875 0zm1.421875 -1.265625l2.296875 0q1.0625 0 1.65625 -0.1875q0.609375 -0.203125 0.96875 -0.5625q0.5 -0.515625 0.78125 -1.359375q0.28125 -0.859375 0.28125 -2.078125q0 -1.6875 -0.546875 -2.578125q-0.546875 -0.90625 -1.34375 -1.21875q-0.578125 -0.21875 -1.84375 -0.21875l-2.25 0l0 8.203125zm7.9905396 1.265625l4.125 -10.734375l1.515625 0l4.40625 10.734375l-1.625 0l-1.25 -3.25l-4.484375 0l-1.1875 3.25l-1.5 0zm3.09375 -4.40625l3.640625 0l-1.125 -2.984375q-0.515625 -1.34375 -0.765625 -2.21875q-0.203125 1.03125 -0.578125 2.046875l-1.171875 3.15625zm10.588104 4.40625l0 -9.46875l-3.53125 0l0 -1.265625l8.5 0l0 1.265625l-3.546875 0l0 9.46875l-1.421875 0zm6.249481 0l0 -10.734375l7.765625 0l0 1.265625l-6.34375 0l0 3.28125l5.9375 0l0 1.265625l-5.9375 0l0 3.65625l6.59375 0l0 1.265625l-8.015625 0z" fill-rule="nonzero"></path><path fill="#000000" fill-opacity="0.0" d="m384.0 425.0l58.0 0l0 69.996796" fill-rule="nonzero"></path><path stroke="#000000" stroke-width="2.0" stroke-linejoin="round" stroke-linecap="butt" d="m384.0 425.0l58.0 0l0 57.996796" fill-rule="evenodd"></path><path fill="#000000" stroke="#000000" stroke-width="2.0" stroke-linecap="butt" d="m438.69653 482.9968l3.3034668 9.076202l3.3034668 -9.076202z" fill-rule="evenodd"></path><path fill="#cfe2f3" d="m650.0 429.0l84.0 -50.0l84.0 50.0l-84.0 50.0z" fill-rule="nonzero"></path><path stroke="#000000" stroke-width="2.0" stroke-linejoin="round" stroke-linecap="butt" d="m650.0 429.0l84.0 -50.0l84.0 50.0l-84.0 50.0z" fill-rule="nonzero"></path><path fill="#000000" d="m704.43384 425.08l0 -7.78125l1.1875 0l0 1.09375q0.359375 -0.578125 0.96875 -0.921875q0.609375 -0.34375 1.390625 -0.34375q0.859375 0 1.40625 0.359375q0.5625 0.359375 0.78125 1.0q0.921875 -1.359375 2.40625 -1.359375q1.15625 0 1.78125 0.640625q0.625 0.640625 0.625 1.96875l0 5.34375l-1.3125 0l0 -4.90625q0 -0.78125 -0.125 -1.125q-0.125 -0.359375 -0.46875 -0.5625q-0.34375 -0.21875 -0.796875 -0.21875q-0.8125 0 -1.359375 0.546875q-0.546875 0.546875 -0.546875 1.75l0 4.515625l-1.3125 0l0 -5.046875q0 -0.890625 -0.328125 -1.328125q-0.3125 -0.4375 -1.046875 -0.4375q-0.5625 0 -1.03125 0.296875q-0.46875 0.296875 -0.6875 0.859375q-0.203125 0.5625 -0.203125 1.625l0 4.03125l-1.328125 0zm11.724365 -3.890625q0 -2.15625 1.203125 -3.203125q1.0 -0.859375 2.4375 -0.859375q1.609375 0 2.625 1.046875q1.015625 1.046875 1.015625 2.90625q0 1.5 -0.453125 2.359375q-0.4375 0.859375 -1.3125 1.34375q-0.859375 0.46875 -1.875 0.46875q-1.625 0 -2.640625 -1.046875q-1.0 -1.046875 -1.0 -3.015625zm1.359375 0q0 1.5 0.640625 2.25q0.65625 0.734375 1.640625 0.734375q0.984375 0 1.640625 -0.75q0.65625 -0.75 0.65625 -2.28125q0 -1.4375 -0.65625 -2.171875q-0.65625 -0.75 -1.640625 -0.75q-0.984375 0 -1.640625 0.734375q-0.640625 0.734375 -0.640625 2.234375zm7.244873 3.890625l0 -10.734375l1.328125 0l0 10.734375l-1.328125 0zm3.2717896 0l0 -7.78125l1.1875 0l0 1.1875q0.453125 -0.828125 0.84375 -1.09375q0.390625 -0.265625 0.84375 -0.265625q0.671875 0 1.359375 0.421875l-0.453125 1.21875q-0.484375 -0.28125 -0.96875 -0.28125q-0.4375 0 -0.78125 0.265625q-0.34375 0.25 -0.484375 0.71875q-0.21875 0.703125 -0.21875 1.53125l0 4.078125l-1.328125 0zm10.224365 -2.5l1.359375 0.15625q-0.3125 1.203125 -1.1875 1.859375q-0.875 0.65625 -2.234375 0.65625q-1.703125 0 -2.703125 -1.046875q-1.0 -1.046875 -1.0 -2.953125q0 -1.953125 1.015625 -3.03125q1.015625 -1.09375 2.625 -1.09375q1.5625 0 2.546875 1.0625q0.984375 1.0625 0.984375 2.984375q0 0.125 0 0.359375l-5.8125 0q0.078125 1.28125 0.71875 1.96875q0.65625 0.671875 1.640625 0.671875q0.71875 0 1.234375 -0.375q0.515625 -0.390625 0.8125 -1.21875zm-4.328125 -2.140625l4.34375 0q-0.09375 -0.984375 -0.5 -1.46875q-0.625 -0.765625 -1.625 -0.765625q-0.921875 0 -1.546875 0.609375q-0.609375 0.609375 -0.671875 1.625zm6.916748 5.28125l1.28125 0.1875q0.078125 0.59375 0.4375 0.875q0.5 0.359375 1.34375 0.359375q0.921875 0 1.421875 -0.375q0.5 -0.359375 0.671875 -1.015625q0.09375 -0.40625 0.09375 -1.6875q-0.859375 1.015625 -2.15625 1.015625q-1.609375 0 -2.484375 -1.15625q-0.875 -1.15625 -0.875 -2.78125q0 -1.109375 0.40625 -2.046875q0.40625 -0.9375 1.15625 -1.453125q0.765625 -0.515625 1.8125 -0.515625q1.375 0 2.265625 1.109375l0 -0.9375l1.21875 0l0 6.71875q0 1.828125 -0.375 2.578125q-0.375 0.765625 -1.171875 1.203125q-0.796875 0.4375 -1.96875 0.4375q-1.390625 0 -2.25 -0.625q-0.859375 -0.625 -0.828125 -1.890625zm1.09375 -4.671875q0 1.53125 0.59375 2.234375q0.609375 0.703125 1.53125 0.703125q0.90625 0 1.515625 -0.6875q0.625 -0.703125 0.625 -2.203125q0 -1.421875 -0.640625 -2.140625q-0.625 -0.734375 -1.515625 -0.734375q-0.890625 0 -1.5 0.71875q-0.609375 0.703125 -0.609375 2.109375zm7.291748 4.03125l0 -7.78125l1.1875 0l0 1.109375q0.859375 -1.28125 2.484375 -1.28125q0.703125 0 1.28125 0.25q0.59375 0.25 0.890625 0.671875q0.296875 0.40625 0.40625 0.96875q0.078125 0.359375 0.078125 1.28125l0 4.78125l-1.328125 0l0 -4.734375q0 -0.796875 -0.15625 -1.1875q-0.140625 -0.40625 -0.53125 -0.640625q-0.390625 -0.25 -0.921875 -0.25q-0.84375 0 -1.453125 0.53125q-0.609375 0.53125 -0.609375 2.03125l0 4.25l-1.328125 0zm7.666687 -3.890625q0 -2.15625 1.203125 -3.203125q1.0 -0.859375 2.4375 -0.859375q1.609375 0 2.625 1.046875q1.015625 1.046875 1.015625 2.90625q0 1.5 -0.453125 2.359375q-0.4375 0.859375 -1.3125 1.34375q-0.859375 0.46875 -1.875 0.46875q-1.625 0 -2.640625 -1.046875q-1.0 -1.046875 -1.0 -3.015625zm1.359375 0q0 1.5 0.640625 2.25q0.65625 0.734375 1.640625 0.734375q0.984375 0 1.640625 -0.75q0.65625 -0.75 0.65625 -2.28125q0 -1.4375 -0.65625 -2.171875q-0.65625 -0.75 -1.640625 -0.75q-0.984375 0 -1.640625 0.734375q-0.640625 0.734375 -0.640625 2.234375z" fill-rule="nonzero"></path><path fill="#000000" d="m733.37756 440.4394q0 -0.265625 0 -0.40625q0 -0.765625 0.21875 -1.328125q0.15625 -0.4375 0.515625 -0.859375q0.265625 -0.3125 0.953125 -0.921875q0.6875 -0.609375 0.890625 -0.96875q0.203125 -0.359375 0.203125 -0.78125q0 -0.765625 -0.609375 -1.34375q-0.59375 -0.59375 -1.46875 -0.59375q-0.84375 0 -1.40625 0.53125q-0.5625 0.53125 -0.734375 1.65625l-1.359375 -0.171875q0.1875 -1.5 1.09375 -2.296875q0.90625 -0.796875 2.390625 -0.796875q1.578125 0 2.515625 0.859375q0.9375 0.859375 0.9375 2.078125q0 0.703125 -0.34375 1.296875q-0.328125 0.59375 -1.28125 1.4375q-0.640625 0.5625 -0.84375 0.84375q-0.203125 0.265625 -0.296875 0.625q-0.09375 0.34375 -0.109375 1.140625l-1.265625 0zm-0.078125 2.640625l0 -1.5l1.5 0l0 1.5l-1.5 0z" fill-rule="nonzero"></path><path fill="#cfe2f3" d="m524.0 529.0l67.0 -50.0l67.0 50.0l-67.0 50.0z" fill-rule="nonzero"></path><path stroke="#000000" stroke-width="2.0" stroke-linejoin="round" stroke-linecap="butt" d="m524.0 529.0l67.0 -50.0l67.0 50.0l-67.0 50.0z" fill-rule="nonzero"></path><path fill="#000000" d="m569.47363 522.7519l1.296875 -0.203125q0.109375 0.78125 0.609375 1.203125q0.5 0.421875 1.40625 0.421875q0.90625 0 1.34375 -0.359375q0.4375 -0.375 0.4375 -0.875q0 -0.453125 -0.390625 -0.703125q-0.265625 -0.1875 -1.34375 -0.453125q-1.453125 -0.359375 -2.015625 -0.625q-0.546875 -0.28125 -0.84375 -0.75q-0.28125 -0.46875 -0.28125 -1.046875q0 -0.515625 0.234375 -0.953125q0.234375 -0.453125 0.640625 -0.734375q0.3125 -0.234375 0.84375 -0.390625q0.53125 -0.15625 1.140625 -0.15625q0.90625 0 1.59375 0.265625q0.703125 0.265625 1.03125 0.71875q0.328125 0.4375 0.453125 1.203125l-1.28125 0.171875q-0.09375 -0.609375 -0.515625 -0.9375q-0.421875 -0.34375 -1.1875 -0.34375q-0.90625 0 -1.296875 0.3125q-0.390625 0.296875 -0.390625 0.703125q0 0.25 0.15625 0.453125q0.171875 0.21875 0.515625 0.359375q0.1875 0.0625 1.15625 0.328125q1.40625 0.375 1.953125 0.609375q0.5625 0.234375 0.875 0.703125q0.3125 0.453125 0.3125 1.125q0 0.65625 -0.390625 1.234375q-0.375 0.578125 -1.109375 0.90625q-0.71875 0.3125 -1.640625 0.3125q-1.515625 0 -2.3125 -0.625q-0.78125 -0.625 -1.0 -1.875zm7.359375 -1.5625q0 -2.15625 1.203125 -3.203125q1.0 -0.859375 2.4375 -0.859375q1.609375 0 2.625 1.046875q1.015625 1.046875 1.015625 2.90625q0 1.5 -0.453125 2.359375q-0.4375 0.859375 -1.3125 1.34375q-0.859375 0.46875 -1.875 0.46875q-1.625 0 -2.640625 -1.046875q-1.0 -1.046875 -1.0 -3.015625zm1.359375 0q0 1.5 0.640625 2.25q0.65625 0.734375 1.640625 0.734375q0.984375 0 1.640625 -0.75q0.65625 -0.75 0.65625 -2.28125q0 -1.4375 -0.65625 -2.171875q-0.65625 -0.75 -1.640625 -0.75q-0.984375 0 -1.640625 0.734375q-0.640625 0.734375 -0.640625 2.234375zm12.385498 3.890625l0 -1.140625q-0.921875 1.3125 -2.46875 1.3125q-0.6875 0 -1.296875 -0.265625q-0.59375 -0.265625 -0.890625 -0.65625q-0.28125 -0.40625 -0.390625 -0.984375q-0.09375 -0.375 -0.09375 -1.21875l0 -4.828125l1.328125 0l0 4.3125q0 1.03125 0.078125 1.390625q0.125 0.53125 0.515625 0.828125q0.40625 0.296875 1.0 0.296875q0.59375 0 1.109375 -0.296875q0.53125 -0.3125 0.75 -0.828125q0.21875 -0.53125 0.21875 -1.53125l0 -4.171875l1.3125 0l0 7.78125l-1.171875 0zm3.026123 0l0 -7.78125l1.1875 0l0 1.1875q0.453125 -0.828125 0.84375 -1.09375q0.390625 -0.265625 0.84375 -0.265625q0.671875 0 1.359375 0.421875l-0.453125 1.21875q-0.484375 -0.28125 -0.96875 -0.28125q-0.4375 0 -0.78125 0.265625q-0.34375 0.25 -0.484375 0.71875q-0.21875 0.703125 -0.21875 1.53125l0 4.078125l-1.328125 0zm9.974365 -2.84375l1.296875 0.15625q-0.203125 1.34375 -1.09375 2.109375q-0.875 0.75 -2.140625 0.75q-1.59375 0 -2.5625 -1.03125q-0.96875 -1.046875 -0.96875 -3.0q0 -1.265625 0.40625 -2.203125q0.421875 -0.953125 1.265625 -1.421875q0.859375 -0.46875 1.859375 -0.46875q1.265625 0 2.078125 0.640625q0.8125 0.640625 1.03125 1.8125l-1.28125 0.203125q-0.1875 -0.78125 -0.65625 -1.171875q-0.453125 -0.40625 -1.109375 -0.40625q-1.0 0 -1.625 0.71875q-0.625 0.71875 -0.625 2.265625q0 1.5625 0.59375 2.28125q0.609375 0.703125 1.578125 0.703125q0.78125 0 1.296875 -0.46875q0.515625 -0.484375 0.65625 -1.46875zm7.578125 0.34375l1.359375 0.15625q-0.3125 1.203125 -1.1875 1.859375q-0.875 0.65625 -2.234375 0.65625q-1.703125 0 -2.703125 -1.046875q-1.0 -1.046875 -1.0 -2.953125q0 -1.953125 1.015625 -3.03125q1.015625 -1.09375 2.625 -1.09375q1.5625 0 2.546875 1.0625q0.984375 1.0625 0.984375 2.984375q0 0.125 0 0.359375l-5.8125 0q0.078125 1.28125 0.71875 1.96875q0.65625 0.671875 1.640625 0.671875q0.71875 0 1.234375 -0.375q0.515625 -0.390625 0.8125 -1.21875zm-4.328125 -2.140625l4.34375 0q-0.09375 -0.984375 -0.5 -1.46875q-0.625 -0.765625 -1.625 -0.765625q-0.921875 0 -1.546875 0.609375q-0.609375 0.609375 -0.671875 1.625z" fill-rule="nonzero"></path><path fill="#000000" d="m590.37756 540.4394q0 -0.265625 0 -0.40625q0 -0.765625 0.21875 -1.328125q0.15625 -0.4375 0.515625 -0.859375q0.265625 -0.3125 0.953125 -0.921875q0.6875 -0.609375 0.890625 -0.96875q0.203125 -0.359375 0.203125 -0.78125q0 -0.765625 -0.609375 -1.34375q-0.59375 -0.59375 -1.46875 -0.59375q-0.84375 0 -1.40625 0.53125q-0.5625 0.53125 -0.734375 1.65625l-1.359375 -0.171875q0.1875 -1.5 1.09375 -2.296875q0.90625 -0.796875 2.390625 -0.796875q1.578125 0 2.515625 0.859375q0.9375 0.859375 0.9375 2.078125q0 0.703125 -0.34375 1.296875q-0.328125 0.59375 -1.28125 1.4375q-0.640625 0.5625 -0.84375 0.84375q-0.203125 0.265625 -0.296875 0.625q-0.09375 0.34375 -0.109375 1.140625l-1.265625 0zm-0.078125 2.640625l0 -1.5l1.5 0l0 1.5l-1.5 0z" fill-rule="nonzero"></path><path fill="#cfe2f3" d="m790.0 539.0l67.0 -50.0l67.0 50.0l-67.0 50.0z" fill-rule="nonzero"></path><path stroke="#000000" stroke-width="2.0" stroke-linejoin="round" stroke-linecap="butt" d="m790.0 539.0l67.0 -50.0l67.0 50.0l-67.0 50.0z" fill-rule="nonzero"></path><path fill="#000000" d="m837.1974 535.08l0 -7.78125l1.1875 0l0 1.1875q0.453125 -0.828125 0.84375 -1.09375q0.390625 -0.265625 0.84375 -0.265625q0.671875 0 1.359375 0.421875l-0.453125 1.21875q-0.484375 -0.28125 -0.96875 -0.28125q-0.4375 0 -0.78125 0.265625q-0.34375 0.25 -0.484375 0.71875q-0.21875 0.703125 -0.21875 1.53125l0 4.078125l-1.328125 0zm10.224365 -2.5l1.359375 0.15625q-0.3125 1.203125 -1.1875 1.859375q-0.875 0.65625 -2.234375 0.65625q-1.703125 0 -2.703125 -1.046875q-1.0 -1.046875 -1.0 -2.953125q0 -1.953125 1.015625 -3.03125q1.015625 -1.09375 2.625 -1.09375q1.5625 0 2.546875 1.0625q0.984375 1.0625 0.984375 2.984375q0 0.125 0 0.359375l-5.8125 0q0.078125 1.28125 0.71875 1.96875q0.65625 0.671875 1.640625 0.671875q0.71875 0 1.234375 -0.375q0.515625 -0.390625 0.8125 -1.21875zm-4.328125 -2.140625l4.34375 0q-0.09375 -0.984375 -0.5 -1.46875q-0.625 -0.765625 -1.625 -0.765625q-0.921875 0 -1.546875 0.609375q-0.609375 0.609375 -0.671875 1.625zm12.229248 1.796875l1.296875 0.15625q-0.203125 1.34375 -1.09375 2.109375q-0.875 0.75 -2.140625 0.75q-1.59375 0 -2.5625 -1.03125q-0.96875 -1.046875 -0.96875 -3.0q0 -1.265625 0.40625 -2.203125q0.421875 -0.953125 1.265625 -1.421875q0.859375 -0.46875 1.859375 -0.46875q1.265625 0 2.078125 0.640625q0.8125 0.640625 1.03125 1.8125l-1.28125 0.203125q-0.1875 -0.78125 -0.65625 -1.171875q-0.453125 -0.40625 -1.109375 -0.40625q-1.0 0 -1.625 0.71875q-0.625 0.71875 -0.625 2.265625q0 1.5625 0.59375 2.28125q0.609375 0.703125 1.578125 0.703125q0.78125 0 1.296875 -0.46875q0.515625 -0.484375 0.65625 -1.46875zm1.765625 -1.046875q0 -2.15625 1.203125 -3.203125q1.0 -0.859375 2.4375 -0.859375q1.609375 0 2.625 1.046875q1.015625 1.046875 1.015625 2.90625q0 1.5 -0.453125 2.359375q-0.4375 0.859375 -1.3125 1.34375q-0.859375 0.46875 -1.875 0.46875q-1.625 0 -2.640625 -1.046875q-1.0 -1.046875 -1.0 -3.015625zm1.359375 0q0 1.5 0.640625 2.25q0.65625 0.734375 1.640625 0.734375q0.984375 0 1.640625 -0.75q0.65625 -0.75 0.65625 -2.28125q0 -1.4375 -0.65625 -2.171875q-0.65625 -0.75 -1.640625 -0.75q-0.984375 0 -1.640625 0.734375q-0.640625 0.734375 -0.640625 2.234375zm7.260498 3.890625l0 -7.78125l1.1875 0l0 1.1875q0.453125 -0.828125 0.84375 -1.09375q0.390625 -0.265625 0.84375 -0.265625q0.671875 0 1.359375 0.421875l-0.453125 1.21875q-0.484375 -0.28125 -0.96875 -0.28125q-0.4375 0 -0.78125 0.265625q-0.34375 0.25 -0.484375 0.71875q-0.21875 0.703125 -0.21875 1.53125l0 4.078125l-1.328125 0zm9.943115 0l0 -0.984375q-0.734375 1.15625 -2.171875 1.15625q-0.921875 0 -1.703125 -0.5q-0.78125 -0.515625 -1.21875 -1.4375q-0.421875 -0.921875 -0.421875 -2.109375q0 -1.171875 0.390625 -2.109375q0.390625 -0.953125 1.15625 -1.453125q0.78125 -0.515625 1.734375 -0.515625q0.703125 0 1.25 0.296875q0.5625 0.296875 0.90625 0.765625l0 -3.84375l1.3125 0l0 10.734375l-1.234375 0zm-4.15625 -3.875q0 1.484375 0.625 2.234375q0.625 0.734375 1.484375 0.734375q0.859375 0 1.46875 -0.703125q0.609375 -0.71875 0.609375 -2.15625q0 -1.609375 -0.625 -2.34375q-0.609375 -0.75 -1.515625 -0.75q-0.875 0 -1.46875 0.71875q-0.578125 0.71875 -0.578125 2.265625z" fill-rule="nonzero"></path><path fill="#000000" d="m842.9109 556.0644l0 -0.953125l8.75 0l0 0.953125l-8.75 0zm9.385498 -12.203125l0 -1.515625l1.3125 0l0 1.515625l-1.3125 0zm0 9.21875l0 -7.78125l1.3125 0l0 7.78125l-1.3125 0zm8.2873535 0l0 -0.984375q-0.734375 1.15625 -2.171875 1.15625q-0.921875 0 -1.703125 -0.5q-0.78125 -0.515625 -1.21875 -1.4375q-0.421875 -0.921875 -0.421875 -2.109375q0 -1.171875 0.390625 -2.109375q0.390625 -0.953125 1.15625 -1.453125q0.78125 -0.515625 1.734375 -0.515625q0.703125 0 1.25 0.296875q0.5625 0.296875 0.90625 0.765625l0 -3.84375l1.3125 0l0 10.734375l-1.234375 0zm-4.15625 -3.875q0 1.484375 0.625 2.234375q0.625 0.734375 1.484375 0.734375q0.859375 0 1.46875 -0.703125q0.609375 -0.71875 0.609375 -2.15625q0 -1.609375 -0.625 -2.34375q-0.609375 -0.75 -1.515625 -0.75q-0.875 0 -1.46875 0.71875q-0.578125 0.71875 -0.578125 2.265625zm9.729248 1.234375q0 -0.265625 0 -0.40625q0 -0.765625 0.21875 -1.328125q0.15625 -0.4375 0.515625 -0.859375q0.265625 -0.3125 0.953125 -0.921875q0.6875 -0.609375 0.890625 -0.96875q0.203125 -0.359375 0.203125 -0.78125q0 -0.765625 -0.609375 -1.34375q-0.59375 -0.59375 -1.46875 -0.59375q-0.84375 0 -1.40625 0.53125q-0.5625 0.53125 -0.734375 1.65625l-1.359375 -0.171875q0.1875 -1.5 1.09375 -2.296875q0.90625 -0.796875 2.390625 -0.796875q1.578125 0 2.515625 0.859375q0.9375 0.859375 0.9375 2.078125q0 0.703125 -0.34375 1.296875q-0.328125 0.59375 -1.28125 1.4375q-0.640625 0.5625 -0.84375 0.84375q-0.203125 0.265625 -0.296875 0.625q-0.09375 0.34375 -0.109375 1.140625l-1.265625 0zm-0.078125 2.640625l0 -1.5l1.5 0l0 1.5l-1.5 0z" fill-rule="nonzero"></path><path fill="#cfe2f3" d="m478.28098 619.0l64.433075 0l0 0c8.440918 0 15.28363 10.745605 15.28363 24.000916c0 13.255371 -6.8427124 24.000977 -15.28363 24.000977l-64.433075 0l0 0c-8.440887 0 -15.2836 -10.745605 -15.2836 -24.000977c0 -13.25531 6.8427124 -24.000916 15.2836 -24.000916z" fill-rule="nonzero"></path><path stroke="#000000" stroke-width="2.0" stroke-linejoin="round" stroke-linecap="butt" d="m478.28098 619.0l64.433075 0l0 0c8.440918 0 15.28363 10.745605 15.28363 24.000916c0 13.255371 -6.8427124 24.000977 -15.28363 24.000977l-64.433075 0l0 0c-8.440887 0 -15.2836 -10.745605 -15.2836 -24.000977c0 -13.25531 6.8427124 -24.000916 15.2836 -24.000916z" fill-rule="nonzero"></path><path fill="#000000" d="m489.58603 644.3153l1.421875 0.359375q-0.4375 1.75 -1.609375 2.671875q-1.15625 0.921875 -2.828125 0.921875q-1.734375 0 -2.828125 -0.703125q-1.09375 -0.71875 -1.65625 -2.046875q-0.5625 -1.34375 -0.5625 -2.890625q0 -1.671875 0.640625 -2.921875q0.640625 -1.25 1.8125 -1.890625q1.1875 -0.65625 2.609375 -0.65625q1.609375 0 2.703125 0.828125q1.109375 0.8125 1.546875 2.296875l-1.40625 0.328125q-0.375 -1.171875 -1.09375 -1.703125q-0.703125 -0.53125 -1.78125 -0.53125q-1.234375 0 -2.0625 0.59375q-0.828125 0.59375 -1.171875 1.59375q-0.328125 1.0 -0.328125 2.0625q0 1.359375 0.390625 2.390625q0.40625 1.015625 1.234375 1.53125q0.84375 0.5 1.828125 0.5q1.203125 0 2.03125 -0.6875q0.828125 -0.6875 1.109375 -2.046875zm2.9436646 3.765625l0 -10.734375l4.765625 0q1.4375 0 2.1875 0.296875q0.75 0.28125 1.1875 1.015625q0.453125 0.734375 0.453125 1.609375q0 1.140625 -0.75 1.9375q-0.734375 0.78125 -2.28125 0.984375q0.5625 0.28125 0.859375 0.546875q0.625 0.5625 1.1875 1.421875l1.859375 2.921875l-1.78125 0l-1.421875 -2.234375q-0.625 -0.96875 -1.03125 -1.46875q-0.40625 -0.515625 -0.71875 -0.71875q-0.3125 -0.21875 -0.640625 -0.296875q-0.25 -0.046875 -0.796875 -0.046875l-1.65625 0l0 4.765625l-1.421875 0zm1.421875 -6.0l3.0625 0q0.96875 0 1.515625 -0.203125q0.5625 -0.203125 0.84375 -0.640625q0.28125 -0.4375 0.28125 -0.96875q0 -0.75 -0.5625 -1.234375q-0.546875 -0.5 -1.734375 -0.5l-3.40625 0l0 3.546875zm9.178009 6.0l0 -10.734375l7.765625 0l0 1.265625l-6.34375 0l0 3.28125l5.9375 0l0 1.265625l-5.9375 0l0 3.65625l6.59375 0l0 1.265625l-8.015625 0zm8.572479 0l4.1250305 -10.734375l1.515625 0l4.40625 10.734375l-1.625 0l-1.25 -3.25l-4.484375 0l-1.1875 3.25l-1.5000305 0zm3.0937805 -4.40625l3.640625 0l-1.125 -2.984375q-0.515625 -1.34375 -0.765625 -2.21875q-0.203125 1.03125 -0.578125 2.046875l-1.171875 3.15625zm10.588074 4.40625l0 -9.46875l-3.53125 0l0 -1.265625l8.5 0l0 1.265625l-3.546875 0l0 9.46875l-1.421875 0zm6.2495117 0l0 -10.734375l7.765625 0l0 1.265625l-6.34375 0l0 3.28125l5.9375 0l0 1.265625l-5.9375 0l0 3.65625l6.59375 0l0 1.265625l-8.015625 0z" fill-rule="nonzero"></path><path fill="#cfe2f3" d="m640.61584 623.0l44.765137 0l0 0c5.86438 0 10.618347 10.745605 10.618347 24.000916c0 13.255371 -4.7539673 24.000977 -10.618347 24.000977l-44.765137 0l0 0c-5.86438 0 -10.618408 -10.745605 -10.618408 -24.000977c0 -13.25531 4.7540283 -24.000916 10.618408 -24.000916z" fill-rule="nonzero"></path><path stroke="#000000" stroke-width="2.0" stroke-linejoin="round" stroke-linecap="butt" d="m640.61584 623.0l44.765137 0l0 0c5.86438 0 10.618347 10.745605 10.618347 24.000916c0 13.255371 -4.7539673 24.000977 -10.618347 24.000977l-44.765137 0l0 0c-5.86438 0 -10.618408 -10.745605 -10.618408 -24.000977c0 -13.25531 4.7540283 -24.000916 10.618408 -24.000916z" fill-rule="nonzero"></path><path fill="#000000" d="m648.3194 652.08093l4.125 -10.734375l1.515625 0l4.40625 10.734375l-1.625 0l-1.25 -3.25l-4.484375 0l-1.1875 3.25l-1.5 0zm3.09375 -4.40625l3.640625 0l-1.125 -2.984375q-0.515625 -1.34375 -0.765625 -2.21875q-0.203125 1.03125 -0.578125 2.046875l-1.171875 3.15625zm7.3693237 0.953125l1.34375 -0.109375q0.09375 0.796875 0.4375 1.3125q0.359375 0.515625 1.078125 0.84375q0.734375 0.3125 1.65625 0.3125q0.8125 0 1.4375 -0.234375q0.625 -0.25 0.921875 -0.671875q0.3125 -0.421875 0.3125 -0.921875q0 -0.5 -0.296875 -0.875q-0.296875 -0.375 -0.96875 -0.640625q-0.4375 -0.15625 -1.921875 -0.515625q-1.46875 -0.359375 -2.0625 -0.671875q-0.765625 -0.40625 -1.15625 -1.0q-0.375 -0.59375 -0.375 -1.34375q0 -0.8125 0.453125 -1.515625q0.46875 -0.703125 1.359375 -1.0625q0.890625 -0.375 1.96875 -0.375q1.203125 0 2.109375 0.390625q0.90625 0.375 1.390625 1.125q0.5 0.75 0.546875 1.6875l-1.375 0.109375q-0.109375 -1.015625 -0.75 -1.53125q-0.625 -0.53125 -1.859375 -0.53125q-1.28125 0 -1.875 0.484375q-0.59375 0.46875 -0.59375 1.125q0 0.578125 0.421875 0.953125q0.40625 0.375 2.140625 0.765625q1.734375 0.390625 2.375 0.6875q0.9375 0.4375 1.375 1.109375q0.453125 0.65625 0.453125 1.515625q0 0.859375 -0.5 1.625q-0.484375 0.75 -1.40625 1.171875q-0.90625 0.421875 -2.0625 0.421875q-1.453125 0 -2.4375 -0.421875q-0.984375 -0.4375 -1.546875 -1.28125q-0.5625 -0.859375 -0.59375 -1.9375zm10.19751 3.453125l0 -10.734375l1.421875 0l0 5.328125l5.34375 -5.328125l1.921875 0l-4.5 4.34375l4.6875 6.390625l-1.875 0l-3.8125 -5.4375l-1.765625 1.71875l0 3.71875l-1.421875 0z" fill-rule="nonzero"></path><path fill="#cfe2f3" d="m738.2836 623.0l64.433044 0l0 0c8.440918 0 15.28363 10.745605 15.28363 24.000916c0 13.255371 -6.8427124 24.000977 -15.28363 24.000977l-64.433044 0l0 0c-8.440918 0 -15.28363 -10.745605 -15.28363 -24.000977c0 -13.25531 6.8427124 -24.000916 15.28363 -24.000916z" fill-rule="nonzero"></path><path stroke="#000000" stroke-width="2.0" stroke-linejoin="round" stroke-linecap="butt" d="m738.2836 623.0l64.433044 0l0 0c8.440918 0 15.28363 10.745605 15.28363 24.000916c0 13.255371 -6.8427124 24.000977 -15.28363 24.000977l-64.433044 0l0 0c-8.440918 0 -15.28363 -10.745605 -15.28363 -24.000977c0 -13.25531 6.8427124 -24.000916 15.28363 -24.000916z" fill-rule="nonzero"></path><path fill="#000000" d="m739.1034 652.08093l0 -10.734375l4.765625 0q1.4375 0 2.1875 0.296875q0.75 0.28125 1.1875 1.015625q0.453125 0.734375 0.453125 1.609375q0 1.140625 -0.75 1.9375q-0.734375 0.78125 -2.28125 0.984375q0.5625 0.28125 0.859375 0.546875q0.625 0.5625 1.1875 1.421875l1.859375 2.921875l-1.78125 0l-1.421875 -2.234375q-0.625 -0.96875 -1.03125 -1.46875q-0.40625 -0.515625 -0.71875 -0.71875q-0.3125 -0.21875 -0.640625 -0.296875q-0.25 -0.046875 -0.796875 -0.046875l-1.65625 0l0 4.765625l-1.421875 0zm1.421875 -6.0l3.0625 0q0.96875 0 1.515625 -0.203125q0.5625 -0.203125 0.84375 -0.640625q0.28125 -0.4375 0.28125 -0.96875q0 -0.75 -0.5625 -1.234375q-0.546875 -0.5 -1.734375 -0.5l-3.40625 0l0 3.546875zm9.17804 6.0l0 -10.734375l7.765625 0l0 1.265625l-6.34375 0l0 3.28125l5.9375 0l0 1.265625l-5.9375 0l0 3.65625l6.59375 0l0 1.265625l-8.015625 0zm9.744324 0l0 -10.734375l3.703125 0q1.25 0 1.90625 0.15625q0.921875 0.203125 1.578125 0.765625q0.84375 0.71875 1.265625 1.84375q0.421875 1.109375 0.421875 2.546875q0 1.21875 -0.28125 2.171875q-0.28125 0.9375 -0.734375 1.5625q-0.453125 0.609375 -0.984375 0.96875q-0.53125 0.359375 -1.28125 0.546875q-0.75 0.171875 -1.71875 0.171875l-3.875 0zm1.421875 -1.265625l2.296875 0q1.0625 0 1.65625 -0.1875q0.609375 -0.203125 0.96875 -0.5625q0.5 -0.515625 0.78125 -1.359375q0.28125 -0.859375 0.28125 -2.078125q0 -1.6875 -0.546875 -2.578125q-0.546875 -0.90625 -1.34375 -1.21875q-0.578125 -0.21875 -1.84375 -0.21875l-2.25 0l0 8.203125zm9.17804 1.265625l0 -10.734375l4.765625 0q1.4375 0 2.1875 0.296875q0.75 0.28125 1.1875 1.015625q0.453125 0.734375 0.453125 1.609375q0 1.140625 -0.75 1.9375q-0.734375 0.78125 -2.28125 0.984375q0.5625 0.28125 0.859375 0.546875q0.625 0.5625 1.1875 1.421875l1.859375 2.921875l-1.78125 0l-1.421875 -2.234375q-0.625 -0.96875 -1.03125 -1.46875q-0.40625 -0.515625 -0.71875 -0.71875q-0.3125 -0.21875 -0.640625 -0.296875q-0.25 -0.046875 -0.796875 -0.046875l-1.65625 0l0 4.765625l-1.421875 0zm1.421875 -6.0l3.0625 0q0.96875 0 1.515625 -0.203125q0.5625 -0.203125 0.84375 -0.640625q0.28125 -0.4375 0.28125 -0.96875q0 -0.75 -0.5625 -1.234375q-0.546875 -0.5 -1.734375 -0.5l-3.40625 0l0 3.546875zm7.9749146 6.0l4.125 -10.734375l1.515625 0l4.40625 10.734375l-1.625 0l-1.25 -3.25l-4.484375 0l-1.1875 3.25l-1.5 0zm3.09375 -4.40625l3.640625 0l-1.125 -2.984375q-0.515625 -1.34375 -0.765625 -2.21875q-0.203125 1.03125 -0.578125 2.046875l-1.171875 3.15625zm9.728699 4.40625l-2.84375 -10.734375l1.453125 0l1.640625 7.03125q0.25 1.109375 0.453125 2.203125q0.40625 -1.71875 0.484375 -1.984375l2.03125 -7.25l1.71875 0l1.53125 5.4375q0.578125 2.015625 0.84375 3.796875q0.203125 -1.015625 0.53125 -2.34375l1.6875 -6.890625l1.421875 0l-2.9375 10.734375l-1.375 0l-2.265625 -8.1875q-0.28125 -1.015625 -0.328125 -1.25q-0.171875 0.734375 -0.3125 1.25l-2.28125 8.1875l-1.453125 0z" fill-rule="nonzero"></path><path fill="#cfe2f3" d="m907.5833 627.0026l48.833374 0l0 0c6.397278 0 11.583313 10.745605 11.583313 24.000916c0 13.255371 -5.186035 24.000977 -11.583313 24.000977l-48.833374 0l0 0c-6.397278 0 -11.583313 -10.745605 -11.583313 -24.000977c0 -13.25531 5.186035 -24.000916 11.583313 -24.000916z" fill-rule="nonzero"></path><path stroke="#000000" stroke-width="2.0" stroke-linejoin="round" stroke-linecap="butt" d="m907.5833 627.0026l48.833374 0l0 0c6.397278 0 11.583313 10.745605 11.583313 24.000916c0 13.255371 -5.186035 24.000977 -11.583313 24.000977l-48.833374 0l0 0c-6.397278 0 -11.583313 -10.745605 -11.583313 -24.000977c0 -13.25531 5.186035 -24.000916 11.583313 -24.000916z" fill-rule="nonzero"></path><path fill="#000000" d="m912.3084 652.63043l1.34375 -0.109375q0.09375 0.796875 0.4375 1.3125q0.359375 0.515625 1.078125 0.84375q0.734375 0.3125 1.65625 0.3125q0.8125 0 1.4375 -0.234375q0.625 -0.25 0.921875 -0.671875q0.3125 -0.421875 0.3125 -0.921875q0 -0.5 -0.296875 -0.875q-0.296875 -0.375 -0.96875 -0.640625q-0.4375 -0.15625 -1.921875 -0.515625q-1.46875 -0.359375 -2.0625 -0.671875q-0.765625 -0.40625 -1.15625 -1.0q-0.375 -0.59375 -0.375 -1.34375q0 -0.8125 0.453125 -1.515625q0.46875 -0.703125 1.359375 -1.0625q0.890625 -0.375 1.96875 -0.375q1.203125 0 2.109375 0.390625q0.90625 0.375 1.390625 1.125q0.5 0.75 0.546875 1.6875l-1.375 0.109375q-0.109375 -1.015625 -0.75 -1.53125q-0.625 -0.53125 -1.859375 -0.53125q-1.28125 0 -1.875 0.484375q-0.59375 0.46875 -0.59375 1.125q0 0.578125 0.421875 0.953125q0.40625 0.375 2.140625 0.765625q1.734375 0.390625 2.375 0.6875q0.9375 0.4375 1.375 1.109375q0.453125 0.65625 0.453125 1.515625q0 0.859375 -0.5 1.625q-0.484375 0.75 -1.40625 1.171875q-0.90625 0.421875 -2.0625 0.421875q-1.453125 0 -2.4375 -0.421875q-0.984375 -0.4375 -1.546875 -1.28125q-0.5625 -0.859375 -0.59375 -1.9375zm10.26001 3.453125l0 -10.734375l4.046875 0q1.078125 0 1.640625 0.09375q0.78125 0.140625 1.3125 0.515625q0.546875 0.359375 0.875 1.03125q0.328125 0.65625 0.328125 1.46875q0 1.359375 -0.875 2.3125q-0.875 0.953125 -3.15625 0.953125l-2.75 0l0 4.359375l-1.421875 0zm1.421875 -5.625l2.78125 0q1.375 0 1.953125 -0.515625q0.578125 -0.515625 0.578125 -1.453125q0 -0.671875 -0.34375 -1.140625q-0.34375 -0.484375 -0.890625 -0.640625q-0.359375 -0.09375 -1.328125 -0.09375l-2.75 0l0 3.84375zm8.291199 5.625l0 -10.734375l1.421875 0l0 9.46875l5.296875 0l0 1.265625l-6.71875 0zm8.463623 0l0 -10.734375l1.40625 0l0 10.734375l-1.40625 0zm6.5563354 0l0 -9.46875l-3.53125 0l0 -1.265625l8.5 0l0 1.265625l-3.546875 0l0 9.46875l-1.421875 0z" fill-rule="nonzero"></path><path fill="#000000" fill-opacity="0.0" d="m660.0 261.0l74.0 0l0 118.0" fill-rule="nonzero"></path><path stroke="#000000" stroke-width="2.0" stroke-linejoin="round" stroke-linecap="butt" d="m660.0 261.0l74.0 0l0 106.0" fill-rule="evenodd"></path><path fill="#000000" stroke="#000000" stroke-width="2.0" stroke-linecap="butt" d="m730.69653 367.0l3.3034668 9.076202l3.3034668 -9.076202z" fill-rule="evenodd"></path><path fill="#000000" fill-opacity="0.0" d="m652.0 429.0l-62.0 0l0 50.0" fill-rule="nonzero"></path><path stroke="#000000" stroke-width="2.0" stroke-linejoin="round" stroke-linecap="butt" d="m652.0 429.0l-62.0 0l0 38.0" fill-rule="evenodd"></path><path fill="#000000" stroke="#000000" stroke-width="2.0" stroke-linecap="butt" d="m586.69653 467.0l3.3034668 9.076202l3.3034668 -9.076202z" fill-rule="evenodd"></path><path fill="#000000" fill-opacity="0.0" d="m820.0 429.0l38.0 0l0 60.0" fill-rule="nonzero"></path><path stroke="#000000" stroke-width="2.0" stroke-linejoin="round" stroke-linecap="butt" d="m820.0 429.0l38.0 0l0 48.0" fill-rule="evenodd"></path><path fill="#000000" stroke="#000000" stroke-width="2.0" stroke-linecap="butt" d="m854.69653 477.0l3.3034668 9.076202l3.3034668 -9.076202z" fill-rule="evenodd"></path><path fill="#000000" fill-opacity="0.0" d="m526.0 531.0l-12.0 0l0 90.0" fill-rule="nonzero"></path><path stroke="#000000" stroke-width="2.0" stroke-linejoin="round" stroke-linecap="butt" d="m526.0 531.0l-12.0 0l0 78.0" fill-rule="evenodd"></path><path fill="#000000" stroke="#000000" stroke-width="2.0" stroke-linecap="butt" d="m510.69653 609.0l3.3034668 9.076172l3.3034668 -9.076172z" fill-rule="evenodd"></path><path fill="#000000" fill-opacity="0.0" d="m658.0 529.0l12.0 0l0 94.0" fill-rule="nonzero"></path><path stroke="#000000" stroke-width="2.0" stroke-linejoin="round" stroke-linecap="butt" d="m658.0 529.0l12.0 0l0 82.0" fill-rule="evenodd"></path><path fill="#000000" stroke="#000000" stroke-width="2.0" stroke-linecap="butt" d="m666.69653 611.0l3.3034668 9.076172l3.3034668 -9.076172z" fill-rule="evenodd"></path><path fill="#000000" fill-opacity="0.0" d="m792.0 539.0l-24.0 0l0 84.0" fill-rule="nonzero"></path><path stroke="#000000" stroke-width="2.0" stroke-linejoin="round" stroke-linecap="butt" d="m792.0 539.0l-24.0 0l0 72.0" fill-rule="evenodd"></path><path fill="#000000" stroke="#000000" stroke-width="2.0" stroke-linecap="butt" d="m764.69653 611.0l3.3034668 9.076172l3.3034668 -9.076172z" fill-rule="evenodd"></path><path fill="#000000" fill-opacity="0.0" d="m924.0 539.0l12.0 0l0 84.0" fill-rule="nonzero"></path><path stroke="#000000" stroke-width="2.0" stroke-linejoin="round" stroke-linecap="butt" d="m924.0 539.0l12.0 0l0 72.0" fill-rule="evenodd"></path><path fill="#000000" stroke="#000000" stroke-width="2.0" stroke-linecap="butt" d="m932.69653 611.0l3.3034668 9.076172l3.3034668 -9.076172z" fill-rule="evenodd"></path><path fill="#000000" fill-opacity="0.0" d="m299.0 81.0l34.015747 0l0 48.0l-34.015747 0z" fill-rule="nonzero"></path><path fill="#000000" d="m309.45312 107.92l0 -13.59375l1.84375 0l7.140625 10.671875l0 -10.671875l1.71875 0l0 13.59375l-1.84375 0l-7.140625 -10.6875l0 10.6875l-1.71875 0z" fill-rule="nonzero"></path><path fill="#000000" fill-opacity="0.0" d="m665.0 209.0l34.015747 0l0 48.0l-34.015747 0z" fill-rule="nonzero"></path><path fill="#000000" d="m675.4531 235.92l0 -13.59375l1.84375 0l7.140625 10.671875l0 -10.671875l1.71875 0l0 13.59375l-1.84375 0l-7.140625 -10.6875l0 10.6875l-1.71875 0z" fill-rule="nonzero"></path><path fill="#000000" fill-opacity="0.0" d="m486.99213 207.0l34.015747 0l0 48.0l-34.015747 0z" fill-rule="nonzero"></path><path fill="#000000" d="m501.289 233.92l0 -5.765625l-5.234375 -7.828125l2.1875 0l2.671875 4.09375q0.75 1.15625 1.390625 2.296875q0.609375 -1.0625 1.484375 -2.40625l2.625 -3.984375l2.109375 0l-5.4375 7.828125l0 5.765625l-1.796875 0z" fill-rule="nonzero"></path><path fill="#000000" fill-opacity="0.0" d="m386.0 367.0l30.015747 0l0 48.0l-30.015747 0z" fill-rule="nonzero"></path><path fill="#000000" d="m396.45312 393.91998l0 -13.59375l1.84375 0l7.140625 10.671875l0 -10.671875l1.71875 0l0 13.59375l-1.84375 0l-7.140625 -10.6875l0 10.6875l-1.71875 0z" fill-rule="nonzero"></path><path fill="#000000" fill-opacity="0.0" d="m170.0 368.0l34.015747 0l0 48.0l-34.015747 0z" fill-rule="nonzero"></path><path fill="#000000" d="m184.29688 394.91998l0 -5.765625l-5.234375 -7.828125l2.1875 0l2.671875 4.09375q0.75 1.15625 1.390625 2.296875q0.609375 -1.0625 1.484375 -2.40625l2.625 -3.984375l2.109375 0l-5.4375 7.828125l0 5.765625l-1.796875 0z" fill-rule="nonzero"></path><path fill="#000000" fill-opacity="0.0" d="m792.0 351.0l34.015747 0l0 48.0l-34.015747 0z" fill-rule="nonzero"></path><path fill="#000000" d="m806.2969 377.91998l0 -5.765625l-5.234375 -7.828125l2.1875 0l2.671875 4.09375q0.75 1.15625 1.390625 2.296875q0.609375 -1.0625 1.484375 -2.40625l2.625 -3.984375l2.109375 0l-5.4375 7.828125l0 5.765625l-1.796875 0z" fill-rule="nonzero"></path><path fill="#000000" fill-opacity="0.0" d="m625.49603 353.0l30.015747 0l0 48.0l-30.015747 0z" fill-rule="nonzero"></path><path fill="#000000" d="m635.94916 379.91998l0 -13.59375l1.84375 0l7.140625 10.671875l0 -10.671875l1.71875 0l0 13.59375l-1.84375 0l-7.140625 -10.6875l0 10.6875l-1.71875 0z" fill-rule="nonzero"></path><path fill="#000000" fill-opacity="0.0" d="m653.0 476.0l34.015747 0l0 48.0l-34.015747 0z" fill-rule="nonzero"></path><path fill="#000000" d="m663.4531 502.91998l0 -13.59375l1.84375 0l7.140625 10.671875l0 -10.671875l1.71875 0l0 13.59375l-1.84375 0l-7.140625 -10.6875l0 10.6875l-1.71875 0z" fill-rule="nonzero"></path><path fill="#000000" fill-opacity="0.0" d="m506.49213 476.0l34.015747 0l0 48.0l-34.015747 0z" fill-rule="nonzero"></path><path fill="#000000" d="m520.789 502.91998l0 -5.765625l-5.234375 -7.828125l2.1875 0l2.671875 4.09375q0.75 1.15625 1.390625 2.296875q0.609375 -1.0625 1.484375 -2.40625l2.625 -3.984375l2.109375 0l-5.4375 7.828125l0 5.765625l-1.796875 0z" fill-rule="nonzero"></path><path fill="#000000" fill-opacity="0.0" d="m919.9974 479.0l37.984253 0l0 41.984253l-37.984253 0z" fill-rule="nonzero"></path><path fill="#000000" d="m934.29425 505.91998l0 -5.765625l-5.234375 -7.828125l2.1875 0l2.671875 4.09375q0.75 1.15625 1.390625 2.296875q0.609375 -1.0625 1.484375 -2.40625l2.625 -3.984375l2.109375 0l-5.4375 7.828125l0 5.765625l-1.796875 0z" fill-rule="nonzero"></path><path fill="#000000" fill-opacity="0.0" d="m751.5079 475.99213l37.984253 0l0 48.0l-37.984253 0z" fill-rule="nonzero"></path><path fill="#000000" d="m761.961 502.9121l0 -13.59375l1.84375 0l7.140625 10.671875l0 -10.671875l1.71875 0l0 13.59375l-1.84375 0l-7.140625 -10.6875l0 10.6875l-1.71875 0z" fill-rule="nonzero"></path><path fill="#cfe2f3" d="m393.44547 14.0l65.1098 0l0 0c8.529572 0 15.444153 7.16288 15.444153 15.998741c0 8.835861 -6.9145813 15.998741 -15.444153 15.998741l-65.1098 0l0 0c-8.529572 0 -15.444153 -7.16288 -15.444153 -15.998741c0 -8.835861 6.9145813 -15.998741 15.444153 -15.998741z" fill-rule="nonzero"></path><path stroke="#000000" stroke-width="2.0" stroke-linejoin="round" stroke-linecap="butt" d="m393.44547 14.0l65.1098 0l0 0c8.529572 0 15.444153 7.16288 15.444153 15.998741c0 8.835861 -6.9145813 15.998741 -15.444153 15.998741l-65.1098 0l0 0c-8.529572 0 -15.444153 -7.16288 -15.444153 -15.998741c0 -8.835861 6.9145813 -15.998741 15.444153 -15.998741z" fill-rule="nonzero"></path><path fill="#000000" d="m402.6519 31.625614l1.34375 -0.109375q0.09375 0.796875 0.4375 1.3125q0.359375 0.515625 1.078125 0.84375q0.734375 0.3125 1.65625 0.3125q0.8125 0 1.4375 -0.234375q0.625 -0.25 0.921875 -0.671875q0.3125 -0.421875 0.3125 -0.921875q0 -0.5 -0.296875 -0.875q-0.296875 -0.375 -0.96875 -0.640625q-0.4375 -0.15625 -1.921875 -0.515625q-1.46875 -0.359375 -2.0625 -0.671875q-0.765625 -0.40625 -1.15625 -1.0q-0.375 -0.59375 -0.375 -1.34375q0 -0.8125 0.453125 -1.515625q0.46875 -0.703125 1.359375 -1.0625q0.890625 -0.375 1.96875 -0.375q1.203125 0 2.109375 0.390625q0.90625 0.375 1.390625 1.125q0.5 0.75 0.546875 1.6875l-1.375 0.109375q-0.109375 -1.015625 -0.75 -1.53125q-0.625 -0.53125 -1.859375 -0.53125q-1.28125 0 -1.875 0.484375q-0.59375 0.46875 -0.59375 1.125q0 0.578125 0.421875 0.953125q0.40625 0.375 2.140625 0.765625q1.734375 0.390625 2.375 0.6875q0.9375 0.4375 1.375 1.109375q0.453125 0.65625 0.453125 1.515625q0 0.859375 -0.5 1.625q-0.484375 0.75 -1.40625 1.171875q-0.90625 0.421875 -2.0625 0.421875q-1.453125 0 -2.4375 -0.421875q-0.984375 -0.4375 -1.546875 -1.28125q-0.5625 -0.859375 -0.59375 -1.9375zm12.994354 3.453125l0 -9.46875l-3.53125 0l0 -1.265625l8.5 0l0 1.265625l-3.546875 0l0 9.46875l-1.421875 0zm5.046356 0l4.125 -10.734375l1.515625 0l4.40625 10.734375l-1.625 0l-1.25 -3.25l-4.484375 0l-1.1875 3.25l-1.5 0zm3.09375 -4.40625l3.640625 0l-1.125 -2.984375q-0.515625 -1.34375 -0.765625 -2.21875q-0.203125 1.03125 -0.578125 2.046875l-1.171875 3.15625zm7.8693542 4.40625l0 -10.734375l4.765625 0q1.4375 0 2.1875 0.296875q0.75 0.28125 1.1875 1.015625q0.453125 0.734375 0.453125 1.609375q0 1.140625 -0.75 1.9375q-0.734375 0.78125 -2.28125 0.984375q0.5625 0.28125 0.859375 0.546875q0.625 0.5625 1.1875 1.421875l1.859375 2.921875l-1.78125 0l-1.421875 -2.234375q-0.625 -0.96875 -1.03125 -1.46875q-0.40625 -0.515625 -0.71875 -0.71875q-0.3125 -0.21875 -0.640625 -0.296875q-0.25 -0.046875 -0.796875 -0.046875l-1.65625 0l0 4.765625l-1.421875 0zm1.421875 -6.0l3.0625 0q0.96875 0 1.515625 -0.203125q0.5625 -0.203125 0.84375 -0.640625q0.28125 -0.4375 0.28125 -0.96875q0 -0.75 -0.5625 -1.234375q-0.546875 -0.5 -1.734375 -0.5l-3.40625 0l0 3.546875zm11.881165 6.0l0 -9.46875l-3.53125 0l0 -1.265625l8.5 0l0 1.265625l-3.546875 0l0 9.46875l-1.421875 0z" fill-rule="nonzero"></path><path fill="#000000" fill-opacity="0.0" d="m426.00037 45.997482l-3.6621094E-4 37.002518" fill-rule="nonzero"></path><path stroke="#000000" stroke-width="2.0" stroke-linejoin="round" stroke-linecap="butt" d="m426.00037 45.997482l-2.4414062E-4 25.002518" fill-rule="evenodd"></path><path fill="#000000" stroke="#000000" stroke-width="2.0" stroke-linecap="butt" d="m422.69666 70.99997l3.3033752 9.076225l3.3035583 -9.076164z" fill-rule="evenodd"></path></g></svg>

