<?xml version="1.0" encoding="UTF-8" standalone="no"?>
<!-- Created with Inkscape (http://www.inkscape.org/) -->

<svg
   xmlns:dc="http://purl.org/dc/elements/1.1/"
   xmlns:cc="http://creativecommons.org/ns#"
   xmlns:rdf="http://www.w3.org/1999/02/22-rdf-syntax-ns#"
   xmlns:svg="http://www.w3.org/2000/svg"
   xmlns="http://www.w3.org/2000/svg"
   xmlns:sodipodi="http://sodipodi.sourceforge.net/DTD/sodipodi-0.dtd"
   xmlns:inkscape="http://www.inkscape.org/namespaces/inkscape"
   width="744.09448819"
   height="1052.3622047"
   id="svg2"
   version="1.1"
   inkscape:version="0.48.3.1 r9886"
   sodipodi:docname="devel.svg"
   inkscape:export-filename="/home/mnowotka/Documents/blog/mnowotka.github.com/presentations/marvin/img/devel.png"
   inkscape:export-xdpi="90"
   inkscape:export-ydpi="90">
  <defs
     id="defs4">
    <marker
       inkscape:stockid="Arrow2Lend"
       orient="auto"
       refY="0.0"
       refX="0.0"
       id="Arrow2Lend"
       style="overflow:visible;">
      <path
         id="path4114"
         style="fill-rule:evenodd;stroke-width:0.62500000;stroke-linejoin:round;"
         d="M 8.7185878,4.0337352 L -2.2072895,0.016013256 L 8.7185884,-4.0017078 C 6.9730900,-1.6296469 6.9831476,1.6157441 8.7185878,4.0337352 z "
         transform="scale(1.1) rotate(180) translate(1,0)" />
    </marker>
    <marker
       inkscape:stockid="Arrow1Lend"
       orient="auto"
       refY="0.0"
       refX="0.0"
       id="Arrow1Lend"
       style="overflow:visible;">
      <path
         id="path4096"
         d="M 0.0,0.0 L 5.0,-5.0 L -12.5,0.0 L 5.0,5.0 L 0.0,0.0 z "
         style="fill-rule:evenodd;stroke:#000000;stroke-width:1.0pt;"
         transform="scale(0.8) rotate(180) translate(12.5,0)" />
    </marker>
  </defs>
  <sodipodi:namedview
     id="base"
     pagecolor="#ffffff"
     bordercolor="#666666"
     borderopacity="1.0"
     inkscape:pageopacity="0.0"
     inkscape:pageshadow="2"
     inkscape:zoom="1.1271903"
     inkscape:cx="435.71429"
     inkscape:cy="831.42857"
     inkscape:document-units="px"
     inkscape:current-layer="layer1"
     showgrid="false"
     inkscape:window-width="1231"
     inkscape:window-height="646"
     inkscape:window-x="49"
     inkscape:window-y="24"
     inkscape:window-maximized="1" />
  <metadata
     id="metadata7">
    <rdf:RDF>
      <cc:Work
         rdf:about="">
        <dc:format>image/svg+xml</dc:format>
        <dc:type
           rdf:resource="http://purl.org/dc/dcmitype/StillImage" />
        <dc:title></dc:title>
      </cc:Work>
    </rdf:RDF>
  </metadata>
  <g
     inkscape:label="Layer 1"
     inkscape:groupmode="layer"
     id="layer1">
    <g
       id="g3096"
       transform="translate(64.561784,134.5825)">
      <path
         id="path3078"
         d="m 55.149,89.184 c 0,1.041 -0.938,1.9 -2.109,1.9 H 21.498 c -1.172,0 -2.123,-0.859 -2.123,-1.9 V 74.809 c 0,-1.055 0.951,-1.908 2.123,-1.908 H 53.04 c 1.172,0 2.109,0.854 2.109,1.908 v 14.375 z"
         inkscape:connector-curvature="0" />
      <path
         id="path3080"
         d="m 100,74.809 c 0,-1.055 -0.95,-1.901 -2.129,-1.901 H 66.335 c -1.179,0 -2.129,0.847 -2.129,1.901 v 14.375 c 0,1.048 0.95,1.9 2.129,1.9 h 31.536 c 1.179,0 2.129,-0.853 2.129,-1.9 V 74.809 z"
         inkscape:connector-curvature="0" />
      <path
         id="path3082"
         d="m 77.578,47.568 c 0,-1.055 -0.95,-1.907 -2.129,-1.907 H 43.906 c -1.159,0 -2.123,0.853 -2.123,1.907 v 14.375 c 0,1.042 0.964,1.908 2.123,1.908 h 31.543 c 1.179,0 2.129,-0.866 2.129,-1.908 V 47.568 z"
         inkscape:connector-curvature="0" />
      <path
         id="path3084"
         d="m 44.961,31.345 0,0 c 1.035,0.726 2.461,0.472 3.203,-0.573 l 7.2,-10.345 c 0.729,-1.035 0.476,-2.471 -0.56,-3.2 l 0,0 -2.227,-1.533 -9.772,14.15 2.156,1.501 z"
         inkscape:connector-curvature="0" />
      <path
         id="path3086"
         d="m 0,52.65 c 1.387,2.952 4.492,4.964 7.552,5.309 L 26.66,30.703 19.082,25.394 0,52.65 z"
         inkscape:connector-curvature="0" />
      <path
         id="path3088"
         d="m 40.67,25.833 c 0.137,0.189 0.261,0.375 0.378,0.573 0.084,0.153 0.163,0.303 0.234,0.437 0.124,0.296 0.26,0.579 0.325,0.862 2.812,-4.026 5.638,-8.047 8.457,-12.067 0,0 -6.582,0.801 -10.032,-7.035 C 39.322,8.105 38.58,7.604 37.87,7.099 27.948,0.159 18.534,-1.257 10.331,0.976 9.882,1.1 8.99,1.393 8.176,1.666 6.737,2.154 6.991,4.342 8.606,4.081 c 0.762,-0.133 1.536,-0.26 1.914,-0.28 1.562,-0.068 3.06,-0.176 4.622,0.114 6.654,1.276 11.882,7.337 7.52,13.564 -1.178,1.664 -3.528,4.945 -3.502,4.984 0.013,0.026 9.916,6.872 9.87,6.943 -0.28,0.397 0.671,-0.885 0.983,-1.283 1.465,-1.719 4.557,-4.658 8.366,-3.89 0.592,0.124 1.094,0.397 1.504,0.742 0.202,0.179 0.41,0.364 0.586,0.583 0.078,0.09 0.136,0.184 0.201,0.275 z"
         inkscape:connector-curvature="0" />
    </g>
    <text
       xml:space="preserve"
       style="font-size:40px;font-style:normal;font-weight:normal;line-height:125%;letter-spacing:0px;word-spacing:0px;fill:#000000;fill-opacity:1;stroke:none;font-family:Sans"
       x="84.280357"
       y="257.46536"
       id="text3104"
       sodipodi:linespacing="125%"><tspan
         sodipodi:role="line"
         id="tspan3106"
         x="84.280357"
         y="257.46536"
         style="font-size:20px">develop</tspan></text>
    <g
       id="g3287"
       transform="translate(185.21477,148.75457)">
      <path
         id="path3251"
         d="m 97.761,43.282 c -4.961,0 -8.095,1.397 -10.631,3.043 0.317,0.23 0.628,0.461 0.933,0.689 1.128,0.847 2.092,1.553 3.138,2.142 1.958,-0.964 4.001,-1.396 6.561,-1.396 1.236,0 2.239,-1.003 2.239,-2.239 -0.001,-1.233 -1.004,-2.239 -2.24,-2.239 z"
         inkscape:connector-curvature="0" />
      <path
         id="path3253"
         d="M 8.8,50.844 C 6.842,51.806 4.799,52.24 2.239,52.24 1.005,52.239 0,53.243 0,54.478 c 0,1.235 1.005,2.239 2.239,2.239 4.962,0 8.095,-1.398 10.632,-3.044 -0.317,-0.23 -0.628,-0.46 -0.932,-0.689 C 10.811,52.139 9.847,51.432 8.8,50.844 z"
         inkscape:connector-curvature="0" />
      <path
         id="path3255"
         d="M 27.985,58.129 C 26.39,58.26 25,58.228 23.508,58.062 v 7.783 c 0,1.235 1.004,2.239 2.238,2.239 1.235,0 2.239,-1.004 2.239,-2.239 v -7.716 z"
         inkscape:connector-curvature="0" />
      <path
         id="path3257"
         d="m 51.868,58.13 c -1.602,0.13 -2.991,0.098 -4.478,-0.066 v 14.324 c 0,1.235 1.006,2.239 2.239,2.239 1.235,0 2.238,-1.004 2.238,-2.239 V 58.13 z"
         inkscape:connector-curvature="0" />
      <path
         id="path3259"
         d="m 75.752,58.129 c -1.586,0.131 -2.979,0.099 -4.478,-0.065 v 7.781 c 0,1.235 1.006,2.239 2.238,2.239 1.236,0 2.239,-1.004 2.239,-2.239 v -7.716 z"
         inkscape:connector-curvature="0" />
      <path
         id="path3261"
         d="m 97.761,52.239 c -2.717,0 -4.851,-0.487 -6.92,-1.579 -1.274,-0.673 -2.418,-1.51 -3.675,-2.451 -0.567,-0.426 -1.16,-0.86 -1.772,-1.289 -1.954,-1.367 -4.437,-2.815 -8.149,-3.378 v 4.532 c 1.271,0.254 2.414,0.662 3.557,1.264 1.272,0.672 2.42,1.509 3.679,2.453 0.565,0.426 1.157,0.857 1.77,1.286 2.699,1.891 5.963,3.64 11.512,3.64 1.236,0 2.239,-1.005 2.239,-2.239 0,-1.234 -1.005,-2.239 -2.241,-2.239 z"
         inkscape:connector-curvature="0" />
      <path
         id="path3263"
         d="m 67.321,49.157 c 0.793,-0.389 1.606,-0.689 2.46,-0.911 v -4.579 c -2.807,0.536 -4.871,1.586 -6.532,2.661 0.316,0.23 0.625,0.459 0.927,0.686 1.131,0.847 2.097,1.556 3.145,2.143 z"
         inkscape:connector-curvature="0" />
      <path
         id="path3265"
         d="m 71.274,50.544 c 1.388,0.23 3.017,0.267 4.478,0.102 v -16.49 c 0,-1.235 -1.003,-2.239 -2.239,-2.239 -1.232,0 -2.238,1.004 -2.238,2.239 v 16.388 z"
         inkscape:connector-curvature="0" />
      <path
         id="path3267"
         d="m 19.56,49.157 c 0.792,-0.388 1.602,-0.688 2.456,-0.909 v -4.58 c -2.805,0.538 -4.866,1.586 -6.526,2.66 0.316,0.23 0.625,0.458 0.928,0.686 1.13,0.847 2.097,1.556 3.142,2.143 z"
         inkscape:connector-curvature="0" />
      <path
         id="path3269"
         d="m 23.508,50.544 c 1.38,0.23 3.011,0.265 4.478,0.102 v -16.49 c 0,-1.235 -1.004,-2.239 -2.239,-2.239 -1.234,0 -2.238,1.004 -2.238,2.239 v 16.388 z"
         inkscape:connector-curvature="0" />
      <path
         id="path3271"
         d="m 56.562,50.844 c -1.213,0.597 -2.439,0.977 -3.832,1.192 -2.021,0.314 -4.312,0.266 -6.239,-0.143 -1.21,-0.26 -2.326,-0.663 -3.411,-1.236 -1.274,-0.67 -2.417,-1.507 -3.673,-2.448 -0.568,-0.426 -1.161,-0.86 -1.774,-1.289 -1.955,-1.367 -4.44,-2.818 -8.154,-3.378 v 4.532 c 1.272,0.253 2.418,0.66 3.562,1.264 1.278,0.674 2.423,1.509 3.681,2.453 0.565,0.425 1.156,0.857 1.768,1.284 1.958,1.372 4.47,2.847 8.265,3.4 1.922,0.28 3.579,0.333 5.782,0.091 3.616,-0.396 6.129,-1.621 8.099,-2.892 -0.318,-0.23 -0.628,-0.461 -0.935,-0.689 -1.131,-0.846 -2.095,-1.552 -3.139,-2.141 z"
         inkscape:connector-curvature="0" />
      <path
         id="path3273"
         d="m 2.239,47.76 c 2.717,0 4.852,0.486 6.921,1.58 1.274,0.673 2.418,1.509 3.675,2.451 0.567,0.426 1.16,0.858 1.772,1.287 1.956,1.369 4.467,2.844 8.262,3.397 1.93,0.28 3.596,0.331 5.781,0.091 3.616,-0.398 6.13,-1.622 8.101,-2.896 -0.315,-0.229 -0.624,-0.459 -0.927,-0.685 -1.129,-0.847 -2.096,-1.556 -3.145,-2.145 -1.212,0.598 -2.44,0.979 -3.834,1.195 -2.046,0.314 -4.325,0.263 -6.24,-0.146 C 21.394,51.632 20.281,51.23 19.2,50.659 17.928,49.989 16.781,49.152 15.521,48.208 14.955,47.782 14.363,47.35 13.751,46.922 11.052,45.031 7.788,43.281 2.238,43.281 1.005,43.282 0,44.288 0,45.521 0,46.757 1.005,47.76 2.239,47.76 z"
         inkscape:connector-curvature="0" />
      <path
         id="path3275"
         d="m 43.44,49.154 c 0.79,-0.388 1.604,-0.688 2.458,-0.911 v -4.578 c -2.808,0.538 -4.869,1.585 -6.53,2.66 0.317,0.23 0.63,0.461 0.935,0.689 1.126,0.847 2.091,1.553 3.137,2.14 z"
         inkscape:connector-curvature="0" />
      <path
         id="path3277"
         d="m 47.391,50.544 c 1.388,0.23 3.023,0.267 4.478,0.102 V 27.612 c 0,-1.235 -1.003,-2.239 -2.238,-2.239 -1.233,0 -2.239,1.004 -2.239,2.239 v 22.932 z"
         inkscape:connector-curvature="0" />
      <path
         id="path3279"
         d="m 80.44,50.841 c -1.211,0.598 -2.438,0.979 -3.827,1.195 -2.038,0.314 -4.318,0.266 -6.24,-0.143 -1.209,-0.257 -2.326,-0.66 -3.41,-1.233 -1.277,-0.672 -2.423,-1.507 -3.682,-2.451 -0.565,-0.426 -1.157,-0.857 -1.769,-1.286 -1.954,-1.367 -4.439,-2.818 -8.151,-3.381 v 4.532 c 1.272,0.254 2.416,0.662 3.561,1.269 1.272,0.67 2.416,1.506 3.672,2.448 0.568,0.426 1.163,0.86 1.774,1.289 1.958,1.37 4.471,2.844 8.268,3.396 1.941,0.283 3.612,0.33 5.78,0.089 3.615,-0.397 6.128,-1.622 8.096,-2.893 -0.314,-0.23 -0.625,-0.459 -0.929,-0.687 -1.129,-0.846 -2.097,-1.555 -3.143,-2.144 z"
         inkscape:connector-curvature="0" />
    </g>
    <path
       style="fill:none;stroke:#000000;stroke-width:0.88138479;stroke-linecap:butt;stroke-linejoin:miter;stroke-miterlimit:4;stroke-opacity:1;stroke-dasharray:none;marker-end:url(#Arrow1Lend)"
       d="m 273.48406,198.91271 39.19017,0"
       id="path3319"
       inkscape:connector-curvature="0" />
    <text
       sodipodi:linespacing="125%"
       id="text4533"
       y="257.46536"
       x="210.28036"
       style="font-size:40px;font-style:normal;font-weight:normal;line-height:125%;letter-spacing:0px;word-spacing:0px;fill:#000000;fill-opacity:1;stroke:none;font-family:Sans"
       xml:space="preserve"><tspan
         style="font-size:20px"
         y="257.46536"
         x="210.28036"
         id="tspan4535"
         sodipodi:role="line">fabric</tspan></text>
    <path
       id="path4652"
       d="m 415.1778,163.28922 c 1.549,-0.289 2.724,-1.641 2.724,-3.274 0,-1.844 -1.494,-3.336 -3.338,-3.336 h -70.35 c -1.843,0 -3.336,1.492 -3.336,3.336 0,1.632 1.173,2.985 2.722,3.274 l -14.212,27.431 v 5.338 c 0,2.396 2.54,4.338 5.671,4.338 1.051,0 2.033,-0.224 2.877,-0.605 v 36.136 h 82.902 v -36.136 c 0.846,0.383 1.825,0.605 2.879,0.605 3.131,0 5.67,-1.941 5.67,-4.338 v -5.338 l -14.209,-27.431 z m -69.013,37.106 c -2.986,0 -5.407,-1.94 -5.407,-4.337 v -0.5 h -0.027 v -4.837 l 10.716,-27.369 h 8.561 l -8.435,27.369 v 5.338 c 0,10e-4 0,0.002 0,0.002 -0.002,2.393 -2.422,4.334 -5.408,4.334 z m 22.16,0 c -2.987,0 -5.408,-1.94 -5.408,-4.337 v -0.5 l 0,0 v -4.837 l 4.479,-27.369 h 8.534 l -2.197,27.369 v 4.837 0.5 c -0.002,2.395 -2.423,4.337 -5.408,4.337 z m 22.155,0 c -2.985,0 -5.406,-1.94 -5.406,-4.337 v -0.5 -4.837 l -2.2,-27.369 h 8.508 l 4.479,27.369 v 5.338 c 0,0.073 0.012,0.146 0.016,0.216 -0.144,2.293 -2.502,4.12 -5.397,4.12 z m 27.538,-4.337 c 0,2.396 -2.421,4.337 -5.407,4.337 -2.985,0 -5.406,-1.94 -5.406,-4.337 v -0.5 -4.837 l -8.438,-27.369 h 8.562 l 10.716,27.369 v 4.837 h -0.026 v 0.5 l -10e-4,0 z"
       inkscape:connector-curvature="0" />
    <text
       xml:space="preserve"
       style="font-size:40px;font-style:normal;font-weight:normal;line-height:125%;letter-spacing:0px;word-spacing:0px;fill:#000000;fill-opacity:1;stroke:none;font-family:Sans"
       x="364.28036"
       y="257.46536"
       id="text4661"
       sodipodi:linespacing="125%"><tspan
         sodipodi:role="line"
         id="tspan4663"
         x="364.28036"
         y="257.46536"
         style="font-size:20px">PIP</tspan></text>
    <g
       id="g4847"
       transform="translate(509.91741,42.700393)">
      <g
         id="g4827">
	<polygon
   id="polygon4829"
   points="32.225,41.119 48.852,50.025 48.852,68.051 32.225,59.146 " />

	<polygon
   id="polygon4831"
   points="67.769,41.119 51.142,50.025 51.142,68.051 67.769,59.146 " />

	<polygon
   id="polygon4833"
   points="49.936,48.418 66.772,39.362 49.936,31.436 33.101,39.362 " />

</g>
      <g
         id="g4835">
	<path
   id="path4837"
   d="m 81.517,62.75 c -5.08,12.414 -17.279,21.162 -31.523,21.162 -18.805,0 -34.049,-15.246 -34.049,-34.049 0,-0.051 0.003,-0.1 0.003,-0.146 0.514,-0.002 6.874,0 6.874,0 L 11.562,38.448 0.291,49.715 h 7.014 c 0,0.002 0,0.002 0,0.002 0,23.586 19.12,42.707 42.707,42.707 16.617,0 31.016,-9.492 38.076,-23.35 L 81.517,62.75 z"
   inkscape:connector-curvature="0" />

	<path
   id="path4839"
   d="m 18.482,37.25 c 5.08,-12.415 17.279,-21.162 31.524,-21.162 18.805,0 34.048,15.244 34.048,34.049 0,0.049 -0.002,0.1 -0.002,0.146 -0.515,0 -6.873,0 -6.873,0 l 11.258,11.27 11.271,-11.27 h -7.014 l 0,0 C 92.694,26.696 73.574,7.575 49.986,7.575 33.369,7.575 18.97,17.068 11.91,30.924 l 6.572,6.326 z"
   inkscape:connector-curvature="0" />

</g>
    </g>
    <g
       transform="translate(509.91741,42.700393)"
       id="g4856">
      <g
         id="g4858">
	<polygon
   points="32.225,41.119 48.852,50.025 48.852,68.051 32.225,59.146 "
   id="polygon4860" />

	<polygon
   points="67.769,41.119 51.142,50.025 51.142,68.051 67.769,59.146 "
   id="polygon4862" />

	<polygon
   points="49.936,48.418 66.772,39.362 49.936,31.436 33.101,39.362 "
   id="polygon4864" />

</g>
      <g
         id="g4866">
	<path
   inkscape:connector-curvature="0"
   d="m 81.517,62.75 c -5.08,12.414 -17.279,21.162 -31.523,21.162 -18.805,0 -34.049,-15.246 -34.049,-34.049 0,-0.051 0.003,-0.1 0.003,-0.146 0.514,-0.002 6.874,0 6.874,0 L 11.562,38.448 0.291,49.715 h 7.014 c 0,0.002 0,0.002 0,0.002 0,23.586 19.12,42.707 42.707,42.707 16.617,0 31.016,-9.492 38.076,-23.35 L 81.517,62.75 z"
   id="path4868" />

	<path
   inkscape:connector-curvature="0"
   d="m 18.482,37.25 c 5.08,-12.415 17.279,-21.162 31.524,-21.162 18.805,0 34.048,15.244 34.048,34.049 0,0.049 -0.002,0.1 -0.002,0.146 -0.515,0 -6.873,0 -6.873,0 l 11.258,11.27 11.271,-11.27 h -7.014 l 0,0 C 92.694,26.696 73.574,7.575 49.986,7.575 33.369,7.575 18.97,17.068 11.91,30.924 l 6.572,6.326 z"
   id="path4870" />

</g>
    </g>
    <g
       id="g4872"
       transform="translate(509.91741,148.7004)">
      <g
         id="g4874">
	<polygon
   id="polygon4876"
   points="48.852,50.025 48.852,68.051 32.225,59.146 32.225,41.119 " />

	<polygon
   id="polygon4878"
   points="51.142,50.025 51.142,68.051 67.769,59.146 67.769,41.119 " />

	<polygon
   id="polygon4880"
   points="66.772,39.362 49.936,31.436 33.101,39.362 49.936,48.418 " />

</g>
      <g
         id="g4882">
	<path
   id="path4884"
   d="m 81.517,62.75 c -5.08,12.414 -17.279,21.162 -31.523,21.162 -18.805,0 -34.049,-15.246 -34.049,-34.049 0,-0.051 0.003,-0.1 0.003,-0.146 0.514,-0.002 6.874,0 6.874,0 L 11.562,38.448 0.291,49.715 h 7.014 c 0,0.002 0,0.002 0,0.002 0,23.586 19.12,42.707 42.707,42.707 16.617,0 31.016,-9.492 38.076,-23.35 L 81.517,62.75 z"
   inkscape:connector-curvature="0" />

	<path
   id="path4886"
   d="m 18.482,37.25 c 5.08,-12.415 17.279,-21.162 31.524,-21.162 18.805,0 34.048,15.244 34.048,34.049 0,0.049 -0.002,0.1 -0.002,0.146 -0.515,0 -6.873,0 -6.873,0 l 11.258,11.27 11.271,-11.27 h -7.014 l 0,0 C 92.694,26.696 73.574,7.575 49.986,7.575 33.369,7.575 18.97,17.068 11.91,30.924 l 6.572,6.326 z"
   inkscape:connector-curvature="0" />

</g>
    </g>
    <g
       transform="translate(509.91741,258.7004)"
       id="g4888">
      <g
         id="g4890">
	<polygon
   points="32.225,41.119 48.852,50.025 48.852,68.051 32.225,59.146 "
   id="polygon4892" />

	<polygon
   points="67.769,41.119 51.142,50.025 51.142,68.051 67.769,59.146 "
   id="polygon4894" />

	<polygon
   points="49.936,48.418 66.772,39.362 49.936,31.436 33.101,39.362 "
   id="polygon4896" />

</g>
      <g
         id="g4898">
	<path
   inkscape:connector-curvature="0"
   d="m 81.517,62.75 c -5.08,12.414 -17.279,21.162 -31.523,21.162 -18.805,0 -34.049,-15.246 -34.049,-34.049 0,-0.051 0.003,-0.1 0.003,-0.146 0.514,-0.002 6.874,0 6.874,0 L 11.562,38.448 0.291,49.715 h 7.014 c 0,0.002 0,0.002 0,0.002 0,23.586 19.12,42.707 42.707,42.707 16.617,0 31.016,-9.492 38.076,-23.35 L 81.517,62.75 z"
   id="path4900" />

	<path
   inkscape:connector-curvature="0"
   d="m 18.482,37.25 c 5.08,-12.415 17.279,-21.162 31.524,-21.162 18.805,0 34.048,15.244 34.048,34.049 0,0.049 -0.002,0.1 -0.002,0.146 -0.515,0 -6.873,0 -6.873,0 l 11.258,11.27 11.271,-11.27 h -7.014 l 0,0 C 92.694,26.696 73.574,7.575 49.986,7.575 33.369,7.575 18.97,17.068 11.91,30.924 l 6.572,6.326 z"
   id="path4902" />

</g>
    </g>
    <path
       style="fill:none;stroke:#000000;stroke-width:1.60000002;stroke-linecap:butt;stroke-linejoin:miter;stroke-miterlimit:4;stroke-opacity:1;stroke-dasharray:none;marker-end:url(#Arrow2Lend)"
       d="m 503.9078,104.87357 c -62.98847,62.98848 -64.31921,64.31922 -64.31921,64.31922"
       id="path4904"
       inkscape:connector-curvature="0" />
    <path
       style="fill:none;stroke:#000000;stroke-width:1.5;stroke-linecap:butt;stroke-linejoin:miter;stroke-miterlimit:4;stroke-opacity:1;stroke-dasharray:none;marker-end:url(#Arrow2Lend)"
       d="m 502.13348,203.34852 -63.87564,0"
       id="path4906"
       inkscape:connector-curvature="0" />
    <path
       style="fill:none;stroke:#000000;stroke-width:1.5;stroke-linecap:butt;stroke-linejoin:miter;stroke-miterlimit:4;stroke-opacity:1;stroke-dasharray:none;marker-end:url(#Arrow2Lend)"
       d="M 499.47199,297.38765 434.26562,232.18127"
       id="path4908"
       inkscape:connector-curvature="0" />
    <text
       xml:space="preserve"
       style="font-size:40px;font-style:normal;font-weight:normal;line-height:125%;letter-spacing:0px;word-spacing:0px;fill:#000000;fill-opacity:1;stroke:none;font-family:Sans"
       x="526.04022"
       y="150.11882"
       id="text5828"
       sodipodi:linespacing="125%"><tspan
         sodipodi:role="line"
         id="tspan5830"
         x="526.04022"
         y="150.11882"
         style="font-size:13px">virtualenv</tspan></text>
    <text
       sodipodi:linespacing="125%"
       id="text5832"
       y="256.11884"
       x="526.04022"
       style="font-size:40px;font-style:normal;font-weight:normal;line-height:125%;letter-spacing:0px;word-spacing:0px;fill:#000000;fill-opacity:1;stroke:none;font-family:Sans"
       xml:space="preserve"><tspan
         style="font-size:13px"
         y="256.11884"
         x="526.04022"
         id="tspan5834"
         sodipodi:role="line">virtualenv</tspan></text>
    <text
       xml:space="preserve"
       style="font-size:40px;font-style:normal;font-weight:normal;line-height:125%;letter-spacing:0px;word-spacing:0px;fill:#000000;fill-opacity:1;stroke:none;font-family:Sans"
       x="526.04022"
       y="368.11884"
       id="text5836"
       sodipodi:linespacing="125%"><tspan
         sodipodi:role="line"
         id="tspan5838"
         x="526.04022"
         y="368.11884"
         style="font-size:13px">virtualenv</tspan></text>
  </g>
</svg>
