<?xml version="1.0" encoding="UTF-8" standalone="no"?>
<!-- Created with Inkscape (http://www.inkscape.org/) -->

<svg
   xmlns:dc="http://purl.org/dc/elements/1.1/"
   xmlns:cc="http://creativecommons.org/ns#"
   xmlns:rdf="http://www.w3.org/1999/02/22-rdf-syntax-ns#"
   xmlns:svg="http://www.w3.org/2000/svg"
   xmlns="http://www.w3.org/2000/svg"
   xmlns:xlink="http://www.w3.org/1999/xlink"
   xmlns:sodipodi="http://sodipodi.sourceforge.net/DTD/sodipodi-0.dtd"
   xmlns:inkscape="http://www.inkscape.org/namespaces/inkscape"
   width="744.09448819"
   height="1052.3622047"
   id="svg2"
   version="1.1"
   inkscape:version="0.48.3.1 r9886"
   sodipodi:docname="drawing.svg"
   inkscape:export-filename="/home/mnowotka/Desktop/schema1.png"
   inkscape:export-xdpi="90"
   inkscape:export-ydpi="90">
  <defs
     id="defs4">
    <marker
       inkscape:stockid="Arrow2Lend"
       orient="auto"
       refY="0.0"
       refX="0.0"
       id="Arrow2Lend"
       style="overflow:visible;">
      <path
         id="path4115"
         style="fill-rule:evenodd;stroke-width:0.62500000;stroke-linejoin:round;"
         d="M 8.7185878,4.0337352 L -2.2072895,0.016013256 L 8.7185884,-4.0017078 C 6.9730900,-1.6296469 6.9831476,1.6157441 8.7185878,4.0337352 z "
         transform="scale(1.1) rotate(180) translate(1,0)" />
    </marker>
    <marker
       inkscape:stockid="Arrow1Lend"
       orient="auto"
       refY="0.0"
       refX="0.0"
       id="Arrow1Lend"
       style="overflow:visible;">
      <path
         id="path4097"
         d="M 0.0,0.0 L 5.0,-5.0 L -12.5,0.0 L 5.0,5.0 L 0.0,0.0 z "
         style="fill-rule:evenodd;stroke:#000000;stroke-width:1.0pt;"
         transform="scale(0.8) rotate(180) translate(12.5,0)" />
    </marker>
    <marker
       inkscape:stockid="Arrow1Lstart"
       orient="auto"
       refY="0.0"
       refX="0.0"
       id="Arrow1Lstart"
       style="overflow:visible">
      <path
         id="path4094"
         d="M 0.0,0.0 L 5.0,-5.0 L -12.5,0.0 L 5.0,5.0 L 0.0,0.0 z "
         style="fill-rule:evenodd;stroke:#000000;stroke-width:1.0pt"
         transform="scale(0.8) translate(12.5,0)" />
    </marker>
  </defs>
  <sodipodi:namedview
     id="base"
     pagecolor="#ffffff"
     bordercolor="#666666"
     borderopacity="1.0"
     inkscape:pageopacity="0.0"
     inkscape:pageshadow="2"
     inkscape:zoom="0.5"
     inkscape:cx="544.02804"
     inkscape:cy="604.72754"
     inkscape:document-units="px"
     inkscape:current-layer="layer1"
     showgrid="false"
     inkscape:window-width="1231"
     inkscape:window-height="646"
     inkscape:window-x="49"
     inkscape:window-y="24"
     inkscape:window-maximized="1"
     showguides="true"
     inkscape:guide-bbox="true" />
  <metadata
     id="metadata7">
    <rdf:RDF>
      <cc:Work
         rdf:about="">
        <dc:format>image/svg+xml</dc:format>
        <dc:type
           rdf:resource="http://purl.org/dc/dcmitype/StillImage" />
        <dc:title></dc:title>
      </cc:Work>
    </rdf:RDF>
  </metadata>
  <g
     inkscape:label="Layer 1"
     inkscape:groupmode="layer"
     id="layer1">
    <g
       id="g3073"
       transform="translate(97.785704,500.85918)"
       inkscape:export-filename="/home/mnowotka/Desktop/schema.png"
       inkscape:export-xdpi="90"
       inkscape:export-ydpi="90">
      <g
         id="g3049">
        <g
           id="g3051">
          <defs
             id="defs3053">
            <rect
               height="64"
               width="64"
               y="0.0060000001"
               id="SVGID_1_"
               x="0" />
          </defs>
          <clipPath
             id="SVGID_2_">
            <use
               id="use3057"
               overflow="visible"
               xlink:href="#SVGID_1_"
               style="overflow:visible"
               x="0"
               y="0"
               width="1"
               height="1" />
          </clipPath>
          <polygon
             id="polygon3059"
             points="-16.664,31.247 -21.206,38.503 -13.5,38.503 -19,53.784 -3.664,34.428 -11.682,34.404 -9.76,31.247 "
             clip-path="url(#SVGID_2_)"
             style="fill:#000000" />
        </g>
      </g>
      <g
         id="g3061">
        <path
           id="path3063"
           d="M 71.396,-15.29 C 70.345,-14.881 46.205,-3.401 46.205,-3.401 44.073,-2.39 42.5,0.455 42.5,2.812 v 73.604 c 0,1.433 0.466,2.288 1.562,2.288 0.406,0 0.59,-0.114 1.063,-0.34 L 68.994,66.813 C 71.125,65.802 72.5,62.957 72.5,60.599 v -73.602 c 0,-1.432 0.021,-2.723 -1.104,-2.287 z"
           inkscape:connector-curvature="0"
           style="fill:#000000" />
        <path
           id="path3065"
           d="m 68.2,-16.517 c 2.474,-1.176 2.205,-1.98 -0.537,-1.98 H 29.334 c -2.74,0 -7.015,0.784 -9.502,1.934 L -5.146,-5.01 C -7.631,-3.859 -9.5,-0.755 -9.5,1.984 v 74.389 c 0,2.74 1.911,5.13 4.651,5.13 h 39.24 c 2.74,0 5.108,-2.39 5.108,-5.13 V 1.984 c 0,-2.739 1.962,-5.865 4.437,-7.041 L 68.2,-16.517 z m -41.7,46.02 h -26 v -3 h 26 v 3 z m 0,-7 h -26 v -3 h 26 v 3 z m 0,-7 h -26 v -3 h 26 v 3 z"
           inkscape:connector-curvature="0"
           style="fill:#000000" />
      </g>
    </g>
    <text
       xml:space="preserve"
       style="font-size:40px;font-style:normal;font-weight:normal;line-height:125%;letter-spacing:0px;word-spacing:0px;fill:#000000;fill-opacity:1;stroke:none;font-family:Sans"
       x="76.593185"
       y="606.35016"
       id="text3085"
       sodipodi:linespacing="125%"
       inkscape:export-filename="/home/mnowotka/Desktop/schema.png"
       inkscape:export-xdpi="90"
       inkscape:export-ydpi="90"><tspan
         sodipodi:role="line"
         id="tspan3087"
         x="76.593185"
         y="606.35016"
         style="font-size:20px">ves-ebi-56</tspan></text>
    <text
       xml:space="preserve"
       style="font-size:40px;font-style:normal;font-weight:normal;line-height:125%;letter-spacing:0px;word-spacing:0px;fill:#000000;fill-opacity:1;stroke:none;font-family:Sans"
       x="176.63327"
       y="512.04156"
       id="text3089"
       sodipodi:linespacing="125%"
       inkscape:export-filename="/home/mnowotka/Desktop/schema.png"
       inkscape:export-xdpi="90"
       inkscape:export-ydpi="90"><tspan
         sodipodi:role="line"
         id="tspan3091"
         x="176.63327"
         y="512.04156"
         style="font-size:16px">build machine</tspan></text>
    <text
       xml:space="preserve"
       style="font-size:40px;font-style:normal;font-weight:normal;line-height:125%;letter-spacing:0px;word-spacing:0px;fill:#000000;fill-opacity:1;stroke:none;font-family:Sans"
       x="175.75952"
       y="546.86719"
       id="text3093"
       sodipodi:linespacing="125%"
       inkscape:export-filename="/home/mnowotka/Desktop/schema.png"
       inkscape:export-xdpi="90"
       inkscape:export-ydpi="90"><tspan
         sodipodi:role="line"
         id="tspan3095"
         x="175.75952"
         y="546.86719"
         style="font-size:16px">gcc installed</tspan></text>
    <text
       xml:space="preserve"
       style="font-size:40px;font-style:normal;font-weight:normal;line-height:125%;letter-spacing:0px;word-spacing:0px;fill:#000000;fill-opacity:1;stroke:none;font-family:Sans"
       x="278.23645"
       y="705.54852"
       id="text3173"
       sodipodi:linespacing="125%"
       inkscape:export-filename="/home/mnowotka/Desktop/schema.png"
       inkscape:export-xdpi="90"
       inkscape:export-ydpi="90"><tspan
         sodipodi:role="line"
         id="tspan3175"
         x="278.23645"
         y="705.54852"
         style="font-size:14px">/nfs/public/rw/chembl/utils/virtualenvs/ldc/envs</tspan></text>
    <path
       inkscape:connector-curvature="0"
       d="m 203.6867,709.69863 h -40.40684 l -7.90522,-7.18655 c -0.43026,-0.39129 -0.99146,-0.60798 -1.57293,-0.60798 h -18.70688 c -1.29155,0 -2.72808,0.65708 -2.72808,1.94864 v 48.32609 c 0,1.29155 1.43653,2.72808 2.72808,2.72808 h 32.34731 v 14.03016 h -8.18426 c -0.64617,0 -1.16918,0.52379 -1.16918,1.16918 v 0.38972 h -24.9425 c -0.64617,0 -1.16918,0.5238 -1.16918,1.16918 0,0.64539 0.52301,1.16918 1.16918,1.16918 h 24.9425 v 0.38973 c 0,0.64539 0.52301,1.16918 1.16918,1.16918 h 19.48633 c 0.64538,0 1.16917,-0.52379 1.16917,-1.16918 v -0.38973 h 23.3836 c 0.64538,0 1.16918,-0.52379 1.16918,-1.16918 0,-0.64538 -0.5238,-1.16918 -1.16918,-1.16918 h -23.3836 v -0.38972 c 0,-0.64539 -0.52379,-1.16918 -1.16917,-1.16918 h -8.96372 v -14.03016 h 33.90621 c 1.29156,0 1.94864,-1.43653 1.94864,-2.72808 v -40.53156 c 0,-1.29156 -0.65708,-1.94864 -1.94864,-1.94864 z m -0.38972,42.86992 h -68.59187 v -48.32609 h 18.70687 0.38973 l 8.57398,7.79453 h 40.92129 v 40.53156 z"
       id="path3177"
       inkscape:export-filename="/home/mnowotka/Desktop/schema.png"
       inkscape:export-xdpi="90"
       inkscape:export-ydpi="90" />
    <text
       sodipodi:linespacing="125%"
       id="text3179"
       y="801.05951"
       x="25.010008"
       style="font-size:40px;font-style:normal;font-weight:normal;line-height:125%;letter-spacing:0px;word-spacing:0px;fill:#000000;fill-opacity:1;stroke:none;font-family:Sans"
       xml:space="preserve"
       inkscape:export-filename="/home/mnowotka/Desktop/schema.png"
       inkscape:export-xdpi="90"
       inkscape:export-ydpi="90"><tspan
         style="font-size:14px"
         y="801.05951"
         x="25.010008"
         id="tspan3181"
         sodipodi:role="line">/nfs/public/rw/homes/cbl_admin/.virtualenvs</tspan></text>
    <path
       id="path3195"
       d="m 474.62858,619.2663 h -40.40684 l -7.90522,-7.20838 c -0.43026,-0.39247 -0.99146,-0.60982 -1.57293,-0.60982 h -18.70688 c -1.29155,0 -2.72808,0.65907 -2.72808,1.95455 v 48.47291 c 0,1.29547 1.43653,2.73637 2.72808,2.73637 h 32.34731 v 14.07278 h -8.18426 c -0.64617,0 -1.16918,0.52537 -1.16918,1.17273 v 0.39091 h -24.9425 c -0.64617,0 -1.16918,0.52539 -1.16918,1.17272 0,0.64736 0.52301,1.17274 1.16918,1.17274 h 24.9425 v 0.39092 c 0,0.64734 0.52301,1.17272 1.16918,1.17272 h 19.48633 c 0.64538,0 1.16917,-0.52538 1.16917,-1.17272 v -0.39092 h 23.3836 c 0.64538,0 1.16918,-0.52538 1.16918,-1.17274 0,-0.64733 -0.5238,-1.17272 -1.16918,-1.17272 h -23.3836 v -0.39091 c 0,-0.64736 -0.52379,-1.17273 -1.16917,-1.17273 h -8.96372 v -14.07278 h 33.90621 c 1.29156,0 1.94864,-1.4409 1.94864,-2.73637 v -40.65469 c 0,-1.29548 -0.65708,-1.95457 -1.94864,-1.95457 z m -0.38972,43.00016 h -68.59187 v -48.4729 h 18.70687 0.38973 l 8.57398,7.81821 h 40.92129 v 40.65469 z"
       inkscape:connector-curvature="0"
       inkscape:export-filename="/home/mnowotka/Desktop/schema.png"
       inkscape:export-xdpi="90"
       inkscape:export-ydpi="90" />
    <g
       transform="translate(540.67148,340.37822)"
       id="g3228"
       inkscape:export-filename="/home/mnowotka/Desktop/schema.png"
       inkscape:export-xdpi="90"
       inkscape:export-ydpi="90">
      <g
         id="g3230">
        <g
           id="g3232">
          <defs
             id="defs3234">
            <rect
               x="0"
               id="rect3236"
               y="0.0060000001"
               width="64"
               height="64" />
          </defs>
          <clipPath
             id="clipPath3238">
            <use
               height="1"
               width="1"
               y="0"
               x="0"
               style="overflow:visible"
               xlink:href="#SVGID_1_"
               overflow="visible"
               id="use3240" />
          </clipPath>
          <polygon
             style="fill:#000000"
             clip-path="url(#SVGID_2_)"
             points="-19,53.784 -3.664,34.428 -11.682,34.404 -9.76,31.247 -16.664,31.247 -21.206,38.503 -13.5,38.503 "
             id="polygon3242" />
        </g>
      </g>
      <g
         id="g3244">
        <path
           style="fill:#000000"
           inkscape:connector-curvature="0"
           d="M 71.396,-15.29 C 70.345,-14.881 46.205,-3.401 46.205,-3.401 44.073,-2.39 42.5,0.455 42.5,2.812 v 73.604 c 0,1.433 0.466,2.288 1.562,2.288 0.406,0 0.59,-0.114 1.063,-0.34 L 68.994,66.813 C 71.125,65.802 72.5,62.957 72.5,60.599 v -73.602 c 0,-1.432 0.021,-2.723 -1.104,-2.287 z"
           id="path3246" />
        <path
           style="fill:#000000"
           inkscape:connector-curvature="0"
           d="m 68.2,-16.517 c 2.474,-1.176 2.205,-1.98 -0.537,-1.98 H 29.334 c -2.74,0 -7.015,0.784 -9.502,1.934 L -5.146,-5.01 C -7.631,-3.859 -9.5,-0.755 -9.5,1.984 v 74.389 c 0,2.74 1.911,5.13 4.651,5.13 h 39.24 c 2.74,0 5.108,-2.39 5.108,-5.13 V 1.984 c 0,-2.739 1.962,-5.865 4.437,-7.041 L 68.2,-16.517 z m -41.7,46.02 h -26 v -3 h 26 v 3 z m 0,-7 h -26 v -3 h 26 v 3 z m 0,-7 h -26 v -3 h 26 v 3 z"
           id="path3248" />
      </g>
    </g>
    <text
       sodipodi:linespacing="125%"
       id="text3250"
       y="445.8692"
       x="519.47894"
       style="font-size:40px;font-style:normal;font-weight:normal;line-height:125%;letter-spacing:0px;word-spacing:0px;fill:#000000;fill-opacity:1;stroke:none;font-family:Sans"
       xml:space="preserve"
       inkscape:export-filename="/home/mnowotka/Desktop/schema.png"
       inkscape:export-xdpi="90"
       inkscape:export-ydpi="90"><tspan
         style="font-size:20px"
         y="445.8692"
         x="519.47894"
         id="tspan3252"
         sodipodi:role="line">ves-hx-57</tspan></text>
    <text
       sodipodi:linespacing="125%"
       id="text3254"
       y="351.56061"
       x="619.51898"
       style="font-size:40px;font-style:normal;font-weight:normal;line-height:125%;letter-spacing:0px;word-spacing:0px;fill:#000000;fill-opacity:1;stroke:none;font-family:Sans"
       xml:space="preserve"
       inkscape:export-filename="/home/mnowotka/Desktop/schema.png"
       inkscape:export-xdpi="90"
       inkscape:export-ydpi="90"><tspan
         style="font-size:16px"
         y="351.56061"
         x="619.51898"
         id="tspan3256"
         sodipodi:role="line">staging machine</tspan></text>
    <g
       id="g3262"
       transform="translate(427.0843,483.14375)"
       inkscape:export-filename="/home/mnowotka/Desktop/schema.png"
       inkscape:export-xdpi="90"
       inkscape:export-ydpi="90">
      <g
         id="g3264">
        <g
           id="g3266">
          <defs
             id="defs3268">
            <rect
               height="64"
               width="64"
               y="0.0060000001"
               id="rect3270"
               x="0" />
          </defs>
          <clipPath
             id="clipPath3272">
            <use
               id="use3274"
               overflow="visible"
               xlink:href="#SVGID_1_"
               style="overflow:visible"
               x="0"
               y="0"
               width="1"
               height="1" />
          </clipPath>
          <polygon
             id="polygon3276"
             points="-19,53.784 -3.664,34.428 -11.682,34.404 -9.76,31.247 -16.664,31.247 -21.206,38.503 -13.5,38.503 "
             clip-path="url(#SVGID_2_)"
             style="fill:#000000" />
        </g>
      </g>
      <g
         id="g3278">
        <path
           id="path3280"
           d="M 71.396,-15.29 C 70.345,-14.881 46.205,-3.401 46.205,-3.401 44.073,-2.39 42.5,0.455 42.5,2.812 v 73.604 c 0,1.433 0.466,2.288 1.562,2.288 0.406,0 0.59,-0.114 1.063,-0.34 L 68.994,66.813 C 71.125,65.802 72.5,62.957 72.5,60.599 v -73.602 c 0,-1.432 0.021,-2.723 -1.104,-2.287 z"
           inkscape:connector-curvature="0"
           style="fill:#000000" />
        <path
           id="path3282"
           d="m 68.2,-16.517 c 2.474,-1.176 2.205,-1.98 -0.537,-1.98 H 29.334 c -2.74,0 -7.015,0.784 -9.502,1.934 L -5.146,-5.01 C -7.631,-3.859 -9.5,-0.755 -9.5,1.984 v 74.389 c 0,2.74 1.911,5.13 4.651,5.13 h 39.24 c 2.74,0 5.108,-2.39 5.108,-5.13 V 1.984 c 0,-2.739 1.962,-5.865 4.437,-7.041 L 68.2,-16.517 z m -41.7,46.02 h -26 v -3 h 26 v 3 z m 0,-7 h -26 v -3 h 26 v 3 z m 0,-7 h -26 v -3 h 26 v 3 z"
           inkscape:connector-curvature="0"
           style="fill:#000000" />
      </g>
    </g>
    <text
       xml:space="preserve"
       style="font-size:40px;font-style:normal;font-weight:normal;line-height:125%;letter-spacing:0px;word-spacing:0px;fill:#000000;fill-opacity:1;stroke:none;font-family:Sans"
       x="405.89178"
       y="588.6347"
       id="text3284"
       sodipodi:linespacing="125%"
       inkscape:export-filename="/home/mnowotka/Desktop/schema.png"
       inkscape:export-xdpi="90"
       inkscape:export-ydpi="90"><tspan
         sodipodi:role="line"
         id="tspan3286"
         x="405.89178"
         y="588.6347"
         style="font-size:20px">ves-hx-56</tspan></text>
    <text
       xml:space="preserve"
       style="font-size:40px;font-style:normal;font-weight:normal;line-height:125%;letter-spacing:0px;word-spacing:0px;fill:#000000;fill-opacity:1;stroke:none;font-family:Sans"
       x="505.93182"
       y="494.32614"
       id="text3288"
       sodipodi:linespacing="125%"
       inkscape:export-filename="/home/mnowotka/Desktop/schema.png"
       inkscape:export-xdpi="90"
       inkscape:export-ydpi="90"><tspan
         sodipodi:role="line"
         id="tspan3290"
         x="505.93182"
         y="494.32614"
         style="font-size:16px">development machine</tspan></text>
    <path
       style="fill:none;stroke:#000000;stroke-width:1px;stroke-linecap:butt;stroke-linejoin:miter;stroke-opacity:1"
       d="m 132.34469,770.99946 -88.577155,0 0,-234.46894 45.851703,0"
       id="path3296"
       inkscape:connector-curvature="0"
       inkscape:export-filename="/home/mnowotka/Desktop/schema.png"
       inkscape:export-xdpi="90"
       inkscape:export-ydpi="90" />
    <path
       style="fill:none;stroke:#000000;stroke-width:1px;stroke-linecap:butt;stroke-linejoin:miter;stroke-opacity:1"
       d="m 200.08016,770.99946 512.70541,0 0,-236.55311 -218.83767,0"
       id="path3298"
       inkscape:connector-curvature="0"
       inkscape:export-filename="/home/mnowotka/Desktop/schema.png"
       inkscape:export-xdpi="90"
       inkscape:export-ydpi="90" />
    <path
       style="fill:none;stroke:#000000;stroke-width:1px;stroke-linecap:butt;stroke-linejoin:miter;stroke-opacity:1"
       d="m 713.74349,539.65677 0,-163.60721 -106.29259,0"
       id="path3300"
       inkscape:connector-curvature="0"
       inkscape:export-filename="/home/mnowotka/Desktop/schema.png"
       inkscape:export-xdpi="90"
       inkscape:export-ydpi="90" />
    <path
       sodipodi:type="arc"
       style="fill:#000000;stroke:#000000;stroke-width:2;stroke-miterlimit:4;stroke-dasharray:none;stroke-dashoffset:0"
       id="path3302"
       sodipodi:cx="692.98596"
       sodipodi:cy="590.71887"
       sodipodi:rx="3.1262524"
       sodipodi:ry="3.1262524"
       d="m 696.11221,590.71887 a 3.1262524,3.1262524 0 1 1 -6.2525,0 3.1262524,3.1262524 0 1 1 6.2525,0 z"
       transform="translate(20,-56)"
       inkscape:export-filename="/home/mnowotka/Desktop/schema.png"
       inkscape:export-xdpi="90"
       inkscape:export-ydpi="90" />
    <path
       style="fill:none;stroke:#000000;stroke-width:0.94995147px;stroke-linecap:butt;stroke-linejoin:miter;stroke-opacity:1"
       d="m 403.28657,681.09488 -341.803604,0 0,-126.95196 42.725454,0"
       id="path3304"
       inkscape:connector-curvature="0"
       inkscape:export-filename="/home/mnowotka/Desktop/schema.png"
       inkscape:export-xdpi="90"
       inkscape:export-ydpi="90" />
    <path
       style="fill:none;stroke:#000000;stroke-width:0.94995147px;stroke-linecap:butt;stroke-linejoin:miter;stroke-opacity:1"
       d="m 474.1483,682.03526 220.92184,0 0,-167.38851 -201.12224,0"
       id="path3306"
       inkscape:connector-curvature="0"
       inkscape:export-filename="/home/mnowotka/Desktop/schema.png"
       inkscape:export-xdpi="90"
       inkscape:export-ydpi="90" />
    <path
       style="fill:none;stroke:#000000;stroke-width:1px;stroke-linecap:butt;stroke-linejoin:miter;stroke-opacity:1"
       d="m 694.02806,514.64675 0,-124.00801 -96.91383,0 0,1.04208 0,0"
       id="path3308"
       inkscape:connector-curvature="0"
       inkscape:export-filename="/home/mnowotka/Desktop/schema.png"
       inkscape:export-xdpi="90"
       inkscape:export-ydpi="90" />
    <path
       transform="translate(1.1583166,-76.757515)"
       d="m 696.11221,590.71887 a 3.1262524,3.1262524 0 1 1 -6.2525,0 3.1262524,3.1262524 0 1 1 6.2525,0 z"
       sodipodi:ry="3.1262524"
       sodipodi:rx="3.1262524"
       sodipodi:cy="590.71887"
       sodipodi:cx="692.98596"
       id="path3310"
       style="fill:#000000;stroke:#000000;stroke-width:2;stroke-miterlimit:4;stroke-dasharray:none;stroke-dashoffset:0"
       sodipodi:type="arc"
       inkscape:export-filename="/home/mnowotka/Desktop/schema.png"
       inkscape:export-xdpi="90"
       inkscape:export-ydpi="90" />
    <path
       style="fill:none;stroke:#000000;stroke-width:1px;stroke-linecap:butt;stroke-linejoin:miter;stroke-opacity:1;marker-end:url(#Arrow2Lend)"
       d="m 162.56513,549.03553 c 0,0 81.70788,21.86196 83.36674,86.49298 1.76653,68.82591 -41.68337,92.7455 -41.68337,92.7455"
       id="path3314"
       inkscape:connector-curvature="0"
       sodipodi:nodetypes="csc"
       inkscape:export-filename="/home/mnowotka/Desktop/schema.png"
       inkscape:export-xdpi="90"
       inkscape:export-ydpi="90" />
    <path
       style="fill:none;stroke:#000000;stroke-width:1px;stroke-linecap:butt;stroke-linejoin:miter;stroke-opacity:1;marker-end:url(#Arrow2Lend)"
       d="m 416.83367,522.98343 c 0,0 -62.98352,-10.44994 -63.56714,58.35671 -0.44189,52.09752 48.97796,59.3988 48.97796,59.3988"
       id="path3316"
       inkscape:connector-curvature="0"
       sodipodi:nodetypes="csc"
       inkscape:export-filename="/home/mnowotka/Desktop/schema.png"
       inkscape:export-xdpi="90"
       inkscape:export-ydpi="90" />
    <path
       style="fill:none;stroke:#000000;stroke-width:1px;stroke-linecap:butt;stroke-linejoin:miter;stroke-opacity:1;marker-end:url(#Arrow2Lend)"
       d="m 531.46293,379.17581 c 0,0 -185.72334,38.24125 -210.50101,132.34469 -19.8852,75.52228 -12.65551,47.93804 -13.54709,96.91383 -1.10267,60.57122 95.87174,42.72545 95.87174,42.72545"
       id="path3320"
       inkscape:connector-curvature="0"
       sodipodi:nodetypes="cssc"
       inkscape:export-filename="/home/mnowotka/Desktop/schema.png"
       inkscape:export-xdpi="90"
       inkscape:export-ydpi="90" />
    <text
       xml:space="preserve"
       style="font-size:40px;font-style:normal;font-weight:normal;line-height:125%;letter-spacing:0px;word-spacing:0px;fill:#000000;fill-opacity:1;stroke:none;font-family:Sans"
       x="246.97395"
       y="666.79102"
       id="text5464"
       sodipodi:linespacing="125%"
       inkscape:export-filename="/home/mnowotka/Desktop/schema.png"
       inkscape:export-xdpi="90"
       inkscape:export-ydpi="90"><tspan
         sodipodi:role="line"
         id="tspan5466"
         x="246.97395"
         y="666.79102"
         style="font-size:14px">apache</tspan></text>
    <text
       sodipodi:linespacing="125%"
       id="text5468"
       y="667.83313"
       x="334.50903"
       style="font-size:40px;font-style:normal;font-weight:normal;line-height:125%;letter-spacing:0px;word-spacing:0px;fill:#000000;fill-opacity:1;stroke:none;font-family:Sans"
       xml:space="preserve"
       inkscape:export-filename="/home/mnowotka/Desktop/schema.png"
       inkscape:export-xdpi="90"
       inkscape:export-ydpi="90"><tspan
         style="font-size:14px"
         y="667.83313"
         x="334.50903"
         id="tspan5470"
         sodipodi:role="line">apache</tspan></text>
    <text
       xml:space="preserve"
       style="font-size:40px;font-style:normal;font-weight:normal;line-height:125%;letter-spacing:0px;word-spacing:0px;fill:#000000;fill-opacity:1;stroke:none;font-family:Sans"
       x="334.50903"
       y="643.86517"
       id="text5472"
       sodipodi:linespacing="125%"
       inkscape:export-filename="/home/mnowotka/Desktop/schema.png"
       inkscape:export-xdpi="90"
       inkscape:export-ydpi="90"><tspan
         sodipodi:role="line"
         id="tspan5474"
         x="334.50903"
         y="643.86517"
         style="font-size:14px">apache</tspan></text>
    <g
       transform="translate(81.112355,52.762986)"
       id="g5501"
       inkscape:export-filename="/home/mnowotka/Desktop/schema.png"
       inkscape:export-xdpi="90"
       inkscape:export-ydpi="90">
      <g
         id="g5503">
        <g
           id="g5505">
          <defs
             id="defs5507">
            <rect
               x="0"
               id="rect5509"
               y="0.0060000001"
               width="64"
               height="64" />
          </defs>
          <clipPath
             id="clipPath5511">
            <use
               height="1"
               width="1"
               y="0"
               x="0"
               style="overflow:visible"
               xlink:href="#SVGID_1_"
               overflow="visible"
               id="use5513" />
          </clipPath>
          <polygon
             style="fill:#000000"
             clip-path="url(#SVGID_2_)"
             points="-19,53.784 -3.664,34.428 -11.682,34.404 -9.76,31.247 -16.664,31.247 -21.206,38.503 -13.5,38.503 "
             id="polygon5515" />
        </g>
      </g>
      <g
         id="g5517">
        <path
           style="fill:#000000"
           inkscape:connector-curvature="0"
           d="M 71.396,-15.29 C 70.345,-14.881 46.205,-3.401 46.205,-3.401 44.073,-2.39 42.5,0.455 42.5,2.812 v 73.604 c 0,1.433 0.466,2.288 1.562,2.288 0.406,0 0.59,-0.114 1.063,-0.34 L 68.994,66.813 C 71.125,65.802 72.5,62.957 72.5,60.599 v -73.602 c 0,-1.432 0.021,-2.723 -1.104,-2.287 z"
           id="path5519" />
        <path
           style="fill:#000000"
           inkscape:connector-curvature="0"
           d="m 68.2,-16.517 c 2.474,-1.176 2.205,-1.98 -0.537,-1.98 H 29.334 c -2.74,0 -7.015,0.784 -9.502,1.934 L -5.146,-5.01 C -7.631,-3.859 -9.5,-0.755 -9.5,1.984 v 74.389 c 0,2.74 1.911,5.13 4.651,5.13 h 39.24 c 2.74,0 5.108,-2.39 5.108,-5.13 V 1.984 c 0,-2.739 1.962,-5.865 4.437,-7.041 L 68.2,-16.517 z m -41.7,46.02 h -26 v -3 h 26 v 3 z m 0,-7 h -26 v -3 h 26 v 3 z m 0,-7 h -26 v -3 h 26 v 3 z"
           id="path5521" />
      </g>
    </g>
    <g
       id="g5583"
       transform="translate(327.04421,45.468396)"
       inkscape:export-filename="/home/mnowotka/Desktop/schema.png"
       inkscape:export-xdpi="90"
       inkscape:export-ydpi="90">
      <g
         id="g5585">
        <g
           id="g5587">
          <defs
             id="defs5589">
            <rect
               height="64"
               width="64"
               y="0.0060000001"
               id="rect5591"
               x="0" />
          </defs>
          <clipPath
             id="clipPath5593">
            <use
               id="use5595"
               overflow="visible"
               xlink:href="#SVGID_1_"
               style="overflow:visible"
               x="0"
               y="0"
               width="1"
               height="1" />
          </clipPath>
          <polygon
             id="polygon5597"
             points="-3.664,34.428 -11.682,34.404 -9.76,31.247 -16.664,31.247 -21.206,38.503 -13.5,38.503 -19,53.784 "
             clip-path="url(#SVGID_2_)"
             style="fill:#000000" />
        </g>
      </g>
      <g
         id="g5599">
        <path
           id="path5601"
           d="M 71.396,-15.29 C 70.345,-14.881 46.205,-3.401 46.205,-3.401 44.073,-2.39 42.5,0.455 42.5,2.812 v 73.604 c 0,1.433 0.466,2.288 1.562,2.288 0.406,0 0.59,-0.114 1.063,-0.34 L 68.994,66.813 C 71.125,65.802 72.5,62.957 72.5,60.599 v -73.602 c 0,-1.432 0.021,-2.723 -1.104,-2.287 z"
           inkscape:connector-curvature="0"
           style="fill:#000000" />
        <path
           id="path5603"
           d="m 68.2,-16.517 c 2.474,-1.176 2.205,-1.98 -0.537,-1.98 H 29.334 c -2.74,0 -7.015,0.784 -9.502,1.934 L -5.146,-5.01 C -7.631,-3.859 -9.5,-0.755 -9.5,1.984 v 74.389 c 0,2.74 1.911,5.13 4.651,5.13 h 39.24 c 2.74,0 5.108,-2.39 5.108,-5.13 V 1.984 c 0,-2.739 1.962,-5.865 4.437,-7.041 L 68.2,-16.517 z m -41.7,46.02 h -26 v -3 h 26 v 3 z m 0,-7 h -26 v -3 h 26 v 3 z m 0,-7 h -26 v -3 h 26 v 3 z"
           inkscape:connector-curvature="0"
           style="fill:#000000" />
      </g>
    </g>
    <path
       id="path5627"
       d="m 252.8808,33.35616 h -30.68866 l -6.00395,-5.458125 c -0.32678,-0.297182 -0.75301,-0.461756 -1.19463,-0.461756 h -14.20772 c -0.98092,0 -2.07195,0.499047 -2.07195,1.479976 v 36.703268 c 0,0.980922 1.09103,2.071955 2.07195,2.071955 h 24.56752 v 10.655791 h -6.21588 c -0.49076,0 -0.88798,0.397814 -0.88798,0.887983 v 0.295989 h -18.94363 c -0.49076,0 -0.88798,0.397822 -0.88798,0.88798 0,0.490168 0.39722,0.887983 0.88798,0.887983 H 218.2495 V 81.6032 c 0,0.490169 0.39722,0.887983 0.88798,0.887983 h 14.79971 c 0.49016,0 0.88797,-0.397814 0.88797,-0.887983 v -0.295996 h 17.75965 c 0.49016,0 0.88799,-0.397815 0.88799,-0.887983 0,-0.490158 -0.39783,-0.88798 -0.88799,-0.88798 h -17.75965 v -0.295989 c 0,-0.490169 -0.39781,-0.887983 -0.88797,-0.887983 h -6.80787 V 67.691478 h 25.75148 c 0.98093,0 1.47998,-1.091033 1.47998,-2.071955 V 34.836136 c 0,-0.980929 -0.49905,-1.479976 -1.47998,-1.479976 z m -0.29599,32.559352 H 200.48985 V 29.212244 h 14.20772 0.29599 l 6.51187,5.919881 h 31.07938 v 30.783387 z"
       inkscape:connector-curvature="0"
       inkscape:export-filename="/home/mnowotka/Desktop/schema.png"
       inkscape:export-xdpi="90"
       inkscape:export-ydpi="90" />
    <path
       style="fill:none;stroke:#000000;stroke-width:1.10876489px;stroke-linecap:butt;stroke-linejoin:miter;stroke-opacity:1"
       d="m 205.17591,80.097654 -60.21153,0"
       id="path5629"
       inkscape:connector-curvature="0"
       inkscape:export-filename="/home/mnowotka/Desktop/schema.png"
       inkscape:export-xdpi="90"
       inkscape:export-ydpi="90" />
    <path
       style="fill:none;stroke:#000000;stroke-width:1.0572052px;stroke-linecap:butt;stroke-linejoin:miter;stroke-opacity:1"
       d="m 248.0745,80.097654 88.51869,0"
       id="path5631"
       inkscape:connector-curvature="0"
       inkscape:export-filename="/home/mnowotka/Desktop/schema.png"
       inkscape:export-xdpi="90"
       inkscape:export-ydpi="90" />
    <text
       sodipodi:linespacing="125%"
       id="text5633"
       y="165.54857"
       x="63.046089"
       style="font-size:40px;font-style:normal;font-weight:normal;line-height:125%;letter-spacing:0px;word-spacing:0px;fill:#000000;fill-opacity:1;stroke:none;font-family:Sans"
       xml:space="preserve"
       inkscape:export-filename="/home/mnowotka/Desktop/schema.png"
       inkscape:export-xdpi="90"
       inkscape:export-ydpi="90"><tspan
         style="font-size:20px"
         y="165.54857"
         x="63.046089"
         id="tspan5635"
         sodipodi:role="line">ves-pg-56</tspan></text>
    <text
       xml:space="preserve"
       style="font-size:40px;font-style:normal;font-weight:normal;line-height:125%;letter-spacing:0px;word-spacing:0px;fill:#000000;fill-opacity:1;stroke:none;font-family:Sans"
       x="311.04608"
       y="165.54857"
       id="text5637"
       sodipodi:linespacing="125%"
       inkscape:export-filename="/home/mnowotka/Desktop/schema.png"
       inkscape:export-xdpi="90"
       inkscape:export-ydpi="90"><tspan
         sodipodi:role="line"
         id="tspan5639"
         x="311.04608"
         y="165.54857"
         style="font-size:20px">ves-pg-57</tspan></text>
    <text
       sodipodi:linespacing="125%"
       id="text5653"
       y="95.560547"
       x="159.43886"
       style="font-size:40px;font-style:normal;font-weight:normal;line-height:125%;letter-spacing:0px;word-spacing:0px;fill:#000000;fill-opacity:1;stroke:none;font-family:Sans"
       xml:space="preserve"
       inkscape:export-filename="/home/mnowotka/Desktop/schema.png"
       inkscape:export-xdpi="90"
       inkscape:export-ydpi="90"><tspan
         style="font-size:11px"
         y="95.560547"
         x="159.43886"
         id="tspan5655"
         sodipodi:role="line">/nfs/public/rw/chembl/utils/</tspan><tspan
         style="font-size:11px"
         y="109.31055"
         x="159.43886"
         sodipodi:role="line"
         id="tspan5657">virtualenvs/ldc/envs</tspan></text>
    <g
       id="g5659"
       transform="translate(81.112355,214.76299)"
       inkscape:export-filename="/home/mnowotka/Desktop/schema.png"
       inkscape:export-xdpi="90"
       inkscape:export-ydpi="90">
      <g
         id="g5661">
        <g
           id="g5663">
          <defs
             id="defs5665">
            <rect
               height="64"
               width="64"
               y="0.0060000001"
               id="rect5667"
               x="0" />
          </defs>
          <clipPath
             id="clipPath5669">
            <use
               id="use5671"
               overflow="visible"
               xlink:href="#SVGID_1_"
               style="overflow:visible"
               x="0"
               y="0"
               width="1"
               height="1" />
          </clipPath>
          <polygon
             id="polygon5673"
             points="-16.664,31.247 -21.206,38.503 -13.5,38.503 -19,53.784 -3.664,34.428 -11.682,34.404 -9.76,31.247 "
             clip-path="url(#SVGID_2_)"
             style="fill:#000000" />
        </g>
      </g>
      <g
         id="g5675">
        <path
           id="path5677"
           d="M 71.396,-15.29 C 70.345,-14.881 46.205,-3.401 46.205,-3.401 44.073,-2.39 42.5,0.455 42.5,2.812 v 73.604 c 0,1.433 0.466,2.288 1.562,2.288 0.406,0 0.59,-0.114 1.063,-0.34 L 68.994,66.813 C 71.125,65.802 72.5,62.957 72.5,60.599 v -73.602 c 0,-1.432 0.021,-2.723 -1.104,-2.287 z"
           inkscape:connector-curvature="0"
           style="fill:#000000" />
        <path
           id="path5679"
           d="m 68.2,-16.517 c 2.474,-1.176 2.205,-1.98 -0.537,-1.98 H 29.334 c -2.74,0 -7.015,0.784 -9.502,1.934 L -5.146,-5.01 C -7.631,-3.859 -9.5,-0.755 -9.5,1.984 v 74.389 c 0,2.74 1.911,5.13 4.651,5.13 h 39.24 c 2.74,0 5.108,-2.39 5.108,-5.13 V 1.984 c 0,-2.739 1.962,-5.865 4.437,-7.041 L 68.2,-16.517 z m -41.7,46.02 h -26 v -3 h 26 v 3 z m 0,-7 h -26 v -3 h 26 v 3 z m 0,-7 h -26 v -3 h 26 v 3 z"
           inkscape:connector-curvature="0"
           style="fill:#000000" />
      </g>
    </g>
    <g
       transform="translate(327.04421,207.4684)"
       id="g5681"
       inkscape:export-filename="/home/mnowotka/Desktop/schema.png"
       inkscape:export-xdpi="90"
       inkscape:export-ydpi="90">
      <g
         id="g5683">
        <g
           id="g5685">
          <defs
             id="defs5687">
            <rect
               x="0"
               id="rect5689"
               y="0.0060000001"
               width="64"
               height="64" />
          </defs>
          <clipPath
             id="clipPath5691">
            <use
               height="1"
               width="1"
               y="0"
               x="0"
               style="overflow:visible"
               xlink:href="#SVGID_1_"
               overflow="visible"
               id="use5693" />
          </clipPath>
          <polygon
             style="fill:#000000"
             clip-path="url(#SVGID_2_)"
             points="-21.206,38.503 -13.5,38.503 -19,53.784 -3.664,34.428 -11.682,34.404 -9.76,31.247 -16.664,31.247 "
             id="polygon5695" />
        </g>
      </g>
      <g
         id="g5697">
        <path
           style="fill:#000000"
           inkscape:connector-curvature="0"
           d="M 71.396,-15.29 C 70.345,-14.881 46.205,-3.401 46.205,-3.401 44.073,-2.39 42.5,0.455 42.5,2.812 v 73.604 c 0,1.433 0.466,2.288 1.562,2.288 0.406,0 0.59,-0.114 1.063,-0.34 L 68.994,66.813 C 71.125,65.802 72.5,62.957 72.5,60.599 v -73.602 c 0,-1.432 0.021,-2.723 -1.104,-2.287 z"
           id="path5699" />
        <path
           style="fill:#000000"
           inkscape:connector-curvature="0"
           d="m 68.2,-16.517 c 2.474,-1.176 2.205,-1.98 -0.537,-1.98 H 29.334 c -2.74,0 -7.015,0.784 -9.502,1.934 L -5.146,-5.01 C -7.631,-3.859 -9.5,-0.755 -9.5,1.984 v 74.389 c 0,2.74 1.911,5.13 4.651,5.13 h 39.24 c 2.74,0 5.108,-2.39 5.108,-5.13 V 1.984 c 0,-2.739 1.962,-5.865 4.437,-7.041 L 68.2,-16.517 z m -41.7,46.02 h -26 v -3 h 26 v 3 z m 0,-7 h -26 v -3 h 26 v 3 z m 0,-7 h -26 v -3 h 26 v 3 z"
           id="path5701" />
      </g>
    </g>
    <path
       inkscape:connector-curvature="0"
       d="m 252.8808,195.35616 h -30.68866 l -6.00395,-5.45812 c -0.32678,-0.29719 -0.75301,-0.46176 -1.19463,-0.46176 h -14.20772 c -0.98092,0 -2.07195,0.49905 -2.07195,1.47998 v 36.70326 c 0,0.98093 1.09103,2.07196 2.07195,2.07196 h 24.56752 v 10.65579 h -6.21588 c -0.49076,0 -0.88798,0.39781 -0.88798,0.88798 v 0.29599 h -18.94363 c -0.49076,0 -0.88798,0.39782 -0.88798,0.88798 0,0.49017 0.39722,0.88798 0.88798,0.88798 h 18.94363 v 0.296 c 0,0.49017 0.39722,0.88798 0.88798,0.88798 h 14.79971 c 0.49016,0 0.88797,-0.39781 0.88797,-0.88798 v -0.296 h 17.75965 c 0.49016,0 0.88799,-0.39781 0.88799,-0.88798 0,-0.49016 -0.39783,-0.88798 -0.88799,-0.88798 h -17.75965 v -0.29599 c 0,-0.49017 -0.39781,-0.88798 -0.88797,-0.88798 h -6.80787 v -10.65579 h 25.75148 c 0.98093,0 1.47998,-1.09103 1.47998,-2.07196 v -30.78338 c 0,-0.98093 -0.49905,-1.47998 -1.47998,-1.47998 z m -0.29599,32.55935 h -52.09496 v -36.70327 h 14.20772 0.29599 l 6.51187,5.91989 h 31.07938 v 30.78338 z"
       id="path5703"
       inkscape:export-filename="/home/mnowotka/Desktop/schema.png"
       inkscape:export-xdpi="90"
       inkscape:export-ydpi="90" />
    <path
       inkscape:connector-curvature="0"
       id="path5705"
       d="m 205.17591,242.09765 -60.21153,0"
       style="fill:none;stroke:#000000;stroke-width:1.10876489px;stroke-linecap:butt;stroke-linejoin:miter;stroke-opacity:1"
       inkscape:export-filename="/home/mnowotka/Desktop/schema.png"
       inkscape:export-xdpi="90"
       inkscape:export-ydpi="90" />
    <path
       inkscape:connector-curvature="0"
       id="path5707"
       d="m 248.0745,242.09765 88.51869,0"
       style="fill:none;stroke:#000000;stroke-width:1.0572052px;stroke-linecap:butt;stroke-linejoin:miter;stroke-opacity:1"
       inkscape:export-filename="/home/mnowotka/Desktop/schema.png"
       inkscape:export-xdpi="90"
       inkscape:export-ydpi="90" />
    <text
       xml:space="preserve"
       style="font-size:40px;font-style:normal;font-weight:normal;line-height:125%;letter-spacing:0px;word-spacing:0px;fill:#000000;fill-opacity:1;stroke:none;font-family:Sans"
       x="63.046089"
       y="327.54858"
       id="text5709"
       sodipodi:linespacing="125%"
       inkscape:export-filename="/home/mnowotka/Desktop/schema.png"
       inkscape:export-xdpi="90"
       inkscape:export-ydpi="90"><tspan
         sodipodi:role="line"
         id="tspan5711"
         x="63.046089"
         y="327.54858"
         style="font-size:20px">ves-oy-56</tspan></text>
    <text
       sodipodi:linespacing="125%"
       id="text5713"
       y="327.54858"
       x="311.04608"
       style="font-size:40px;font-style:normal;font-weight:normal;line-height:125%;letter-spacing:0px;word-spacing:0px;fill:#000000;fill-opacity:1;stroke:none;font-family:Sans"
       xml:space="preserve"
       inkscape:export-filename="/home/mnowotka/Desktop/schema.png"
       inkscape:export-xdpi="90"
       inkscape:export-ydpi="90"><tspan
         style="font-size:20px"
         y="327.54858"
         x="311.04608"
         id="tspan5715"
         sodipodi:role="line">ves-oy-57</tspan></text>
    <text
       xml:space="preserve"
       style="font-size:40px;font-style:normal;font-weight:normal;line-height:125%;letter-spacing:0px;word-spacing:0px;fill:#000000;fill-opacity:1;stroke:none;font-family:Sans"
       x="159.43886"
       y="257.56055"
       id="text5717"
       sodipodi:linespacing="125%"
       inkscape:export-filename="/home/mnowotka/Desktop/schema.png"
       inkscape:export-xdpi="90"
       inkscape:export-ydpi="90"><tspan
         sodipodi:role="line"
         id="tspan5719"
         x="159.43886"
         y="257.56055"
         style="font-size:11px">/nfs/public/rw/chembl/utils/</tspan><tspan
         id="tspan5721"
         sodipodi:role="line"
         x="159.43886"
         y="271.31055"
         style="font-size:11px">virtualenvs/ldc/envs</tspan></text>
    <rect
       style="fill:none;stroke:#000000;stroke-width:1.80260003;stroke-miterlimit:4;stroke-dasharray:5.40780019, 5.40780019;stroke-dashoffset:0"
       id="rect5723"
       width="401.00644"
       height="343.61655"
       x="33.479172"
       y="9.2780151"
       inkscape:export-filename="/home/mnowotka/Desktop/schema.png"
       inkscape:export-xdpi="90"
       inkscape:export-ydpi="90" />
    <text
       xml:space="preserve"
       style="font-size:40px;font-style:normal;font-weight:normal;line-height:125%;letter-spacing:0px;word-spacing:0px;fill:#000000;fill-opacity:1;stroke:none;font-family:Sans"
       x="32.304611"
       y="376.04956"
       id="text5725"
       sodipodi:linespacing="125%"
       inkscape:export-filename="/home/mnowotka/Desktop/schema.png"
       inkscape:export-xdpi="90"
       inkscape:export-ydpi="90"><tspan
         sodipodi:role="line"
         id="tspan5727"
         x="32.304611"
         y="376.04956"
         style="font-size:18px">PRODUCTION MACHINES</tspan></text>
    <path
       style="fill:none;stroke:#000000;stroke-width:1px;stroke-linecap:butt;stroke-linejoin:miter;stroke-opacity:1;marker-end:url(#Arrow2Lend)"
       d="M 435.52305,479.09966 C 444.08283,476.80607 308.97796,353.64475 308.97796,353.64475"
       id="path5917"
       inkscape:connector-curvature="0"
       inkscape:export-filename="/home/mnowotka/Desktop/schema.png"
       inkscape:export-xdpi="90"
       inkscape:export-ydpi="90"
       sodipodi:nodetypes="cc" />
    <text
       xml:space="preserve"
       style="font-size:40px;font-style:normal;font-weight:normal;line-height:125%;letter-spacing:0px;word-spacing:0px;fill:#000000;fill-opacity:1;stroke:none;font-family:Sans"
       x="358.19641"
       y="398.23795"
       id="text6105"
       sodipodi:linespacing="125%"
       inkscape:export-filename="/home/mnowotka/Desktop/schema.png"
       inkscape:export-xdpi="90"
       inkscape:export-ydpi="90"><tspan
         sodipodi:role="line"
         id="tspan6107"
         x="358.19641"
         y="398.23795"
         style="font-size:18px">rsync</tspan></text>
    <path
       id="path6159"
       d="m -168.61825,376.38663 -194.97986,0 0,418.95866 319.639111,0 0,-288.03408 0,-26.18492 -98.022661,-104.73966 z m 113.79336,411.891 -300.99808,-1.80698 0,-403.01636 203.64248,-1.80698 1.83816,92.09078 97.3556,3.61396 z"
       inkscape:connector-curvature="0"
       sodipodi:nodetypes="ccccccccccccccc"
       inkscape:export-filename="/home/mnowotka/Desktop/schema.png"
       inkscape:export-xdpi="90"
       inkscape:export-ydpi="90" />
    <text
       xml:space="preserve"
       style="font-size:40px;font-style:normal;font-weight:normal;line-height:125%;letter-spacing:0px;word-spacing:0px;fill:#000000;fill-opacity:1;stroke:none;font-family:Sans"
       x="-329.69595"
       y="426.02713"
       id="text6168"
       sodipodi:linespacing="125%"
       inkscape:transform-center-x="-44.211887"
       inkscape:transform-center-y="14.863281"
       inkscape:export-filename="/home/mnowotka/Desktop/schema.png"
       inkscape:export-xdpi="90"
       inkscape:export-ydpi="90"><tspan
         sodipodi:role="line"
         id="tspan6170"
         x="-329.69595"
         y="426.02713">UPDATE</tspan></text>
    <text
       xml:space="preserve"
       style="font-size:40px;font-style:normal;font-weight:normal;line-height:125%;letter-spacing:0px;word-spacing:0px;fill:#000000;fill-opacity:1;stroke:none;font-family:Sans"
       x="-341.90698"
       y="552.24243"
       id="text6172"
       sodipodi:linespacing="125%"
       inkscape:export-filename="/home/mnowotka/Desktop/schema.png"
       inkscape:export-xdpi="90"
       inkscape:export-ydpi="90"><tspan
         sodipodi:role="line"
         id="tspan6174"
         x="-341.90698"
         y="552.24243"
         style="font-size:15px">pip install chembl_webservices -U</tspan></text>
    <flowRoot
       xml:space="preserve"
       id="flowRoot6198"
       style="fill:black;stroke:none;stroke-opacity:1;stroke-width:1px;stroke-linejoin:miter;stroke-linecap:butt;fill-opacity:1;font-family:Sans;font-style:normal;font-weight:normal;font-size:40px;line-height:125%;letter-spacing:0px;word-spacing:0px"><flowRegion
         id="flowRegion6200"><rect
           id="rect6202"
           width="801.70886"
           height="63.370373"
           x="-411.17056"
           y="661.82385" /></flowRegion><flowPara
         id="flowPara6204" /></flowRoot>    <text
       xml:space="preserve"
       style="font-size:40px;font-style:normal;font-weight:normal;line-height:125%;letter-spacing:0px;word-spacing:0px;fill:#000000;fill-opacity:1;stroke:none;font-family:Sans"
       x="-341.69595"
       y="525.40613"
       id="text6210"
       sodipodi:linespacing="125%"
       inkscape:export-filename="/home/mnowotka/Desktop/schema.png"
       inkscape:export-xdpi="90"
       inkscape:export-ydpi="90"><tspan
         sodipodi:role="line"
         id="tspan6212"
         x="-341.69595"
         y="525.40613"
         style="font-size:15px">workon chembl_webservices</tspan></text>
    <path
       style="fill:none;stroke:#000000;stroke-width:1px;stroke-linecap:butt;stroke-linejoin:miter;stroke-opacity:1"
       d="m -48,520.36218 136,0"
       id="path6226"
       inkscape:connector-curvature="0"
       inkscape:export-filename="/home/mnowotka/Desktop/schema.png"
       inkscape:export-xdpi="90"
       inkscape:export-ydpi="90" />
  </g>
</svg>
